<svg xmlns="http://www.w3.org/2000/svg" width="590" height="190" viewBox="0 0 590 190" role="img" aria-label="ASCIT31/darkmoon-research: Evidence corpus: autonomous AI penetration testing across cloud, identity, CI/CD, IaC, data and IoT firmware — validated on public labs.">
<rect x="0.5" y="0.5" width="589" height="189" rx="14" fill="#F4F6F5" stroke="#00FF86" stroke-opacity="0.6"/>
<rect x="0" y="0" width="5" height="190" rx="2" fill="#00FF86"><animate attributeName="height" values="0;190" dur="0.7s" fill="freeze"/></rect>
<g transform="translate(24 22) scale(0.14)"><g id="fc4db03b-dc11-4019-aa07-bd4b481d6736_10"><polygon points="202.4587 1.7382 170.6803 1.7382 217.1969 48.2548 171.2019 94.2381 202.9816 94.2381 234.7843 62.4365 234.7843 34.0626 202.4587 1.7382" style="fill:#00FF86;"/><polygon points="64.1041 1.7382 32.3245 1.7382 0 34.0626 0 62.4365 31.8016 94.2381 63.5812 94.2381 17.5863 48.2548 64.1041 1.7382" style="fill:#00FF86;"/><path d="M110.4428,0c-26.6055,0-48.1741,21.5685-48.1741,48.1741,0,26.5813,21.5443,48.1498,48.1267,48.1729h10.0741v-23.6251s-10.051.0242-10.0741.0242c-13.528-.0242-24.5247-11.0452-24.5247-24.572,0-13.551,11.021-24.572,24.572-24.572,13.4795,0,24.4531,10.902,24.5709,24.3353v46.353h23.6032v-46.1163c0-.6155-.0242-1.254-.0474-1.8683-.97-25.7303-22.1367-46.3057-48.1267-46.3057Z" style="fill:#00FF86;"/></g></g><path transform="translate(66.0 44.0)" d="M7.2 0.4Q5.3 0.4 3.9 -0.6Q2.4 -1.5 1.6 -3.1Q0.8 -4.8 0.8 -6.9Q0.8 -9 1.5 -10.6Q2.3 -12.2 3.7 -13.1Q5 -14 6.8 -14Q8 -14 9 -13.6Q10.1 -13.2 10.7 -12.3V-18H14.6V0H11.3L11 -1.9Q9.8 0.4 7.2 0.4ZM7.8 -3Q9.1 -3 9.9 -4.1Q10.7 -5.2 10.7 -7Q10.7 -8.8 9.9 -9.8Q9.1 -10.8 7.8 -10.8Q6.4 -10.8 5.6 -9.8Q4.7 -8.8 4.7 -7Q4.7 -5.2 5.6 -4.1Q6.4 -3 7.8 -3ZM23.1 0.4Q21.2 0.4 19.8 -0.6Q18.4 -1.5 17.6 -3.2Q16.8 -4.8 16.8 -7Q16.8 -9 17.6 -10.6Q18.4 -12.2 19.7 -13.1Q21.1 -14 22.8 -14Q24.2 -14 25.2 -13.5Q26.3 -13 26.9 -12.1L27.1 -13.7H30.3V0H27.1L26.9 -1.8Q26.3 -0.8 25.3 -0.2Q24.3 0.4 23.1 0.4ZM23.8 -3Q25.1 -3 25.9 -4.1Q26.7 -5.2 26.7 -7Q26.7 -8.8 25.9 -9.8Q25.1 -10.8 23.8 -10.8Q22.4 -10.8 21.6 -9.8Q20.8 -8.8 20.8 -7Q20.8 -5.2 21.6 -4.1Q22.4 -3 23.8 -3ZM33.3 0V-7.9Q33.3 -10.9 34.9 -12.5Q36.5 -14 39.4 -14Q39.7 -14 40.4 -14Q41.1 -14 41.8 -13.8V-10.5Q41.3 -10.6 40.9 -10.6Q40.5 -10.7 40 -10.7Q39.2 -10.7 38.6 -10.5Q37.9 -10.2 37.5 -9.6Q37.2 -9 37.2 -7.9V0ZM43.7 0V-18H47.6V-8.7L51.6 -13.7H56.3L52 -8.5L56.6 0H52.2L49.4 -5.5L47.6 -3.3V0ZM58.1 0V-8.2Q58.1 -9.9 58.8 -11.3Q59.5 -12.6 60.8 -13.4Q62.1 -14.2 63.8 -14.2Q65.3 -14.2 66.6 -13.5Q67.8 -12.9 68.6 -11.8Q69.5 -12.9 70.7 -13.5Q72 -14.2 73.5 -14.2Q75.1 -14.2 76.4 -13.4Q77.7 -12.6 78.4 -11.3Q79.1 -9.9 79.1 -8.2V0H75.2V-8.2Q75.2 -9.3 74.6 -10Q74 -10.7 72.9 -10.7Q71.9 -10.7 71.2 -10Q70.6 -9.3 70.6 -8.2V0H66.7V-8.2Q66.7 -9.3 66 -10Q65.4 -10.7 64.3 -10.7Q63.3 -10.7 62.6 -10Q61.9 -9.3 61.9 -8.2V0ZM88.2 0.4Q86.2 0.4 84.6 -0.6Q83 -1.5 82.1 -3.1Q81.2 -4.7 81.2 -6.8Q81.2 -8.9 82.1 -10.6Q83 -12.2 84.6 -13.1Q86.2 -14 88.2 -14Q90.3 -14 91.9 -13.1Q93.4 -12.2 94.3 -10.6Q95.2 -8.9 95.2 -6.8Q95.2 -4.7 94.3 -3.1Q93.4 -1.5 91.9 -0.6Q90.3 0.4 88.2 0.4ZM88.2 -3Q89.6 -3 90.4 -4.1Q91.3 -5.1 91.3 -6.8Q91.3 -8.5 90.4 -9.6Q89.6 -10.7 88.2 -10.7Q86.9 -10.7 86 -9.6Q85.2 -8.5 85.2 -6.8Q85.2 -5.1 86 -4.1Q86.9 -3 88.2 -3ZM103.8 0.4Q101.7 0.4 100.2 -0.6Q98.6 -1.5 97.7 -3.1Q96.8 -4.7 96.8 -6.8Q96.8 -8.9 97.7 -10.6Q98.6 -12.2 100.2 -13.1Q101.7 -14 103.8 -14Q105.8 -14 107.4 -13.1Q109 -12.2 109.9 -10.6Q110.8 -8.9 110.8 -6.8Q110.8 -4.7 109.9 -3.1Q109 -1.5 107.4 -0.6Q105.8 0.4 103.8 0.4ZM103.8 -3Q105.1 -3 106 -4.1Q106.8 -5.1 106.8 -6.8Q106.8 -8.5 106 -9.6Q105.1 -10.7 103.8 -10.7Q102.4 -10.7 101.6 -9.6Q100.7 -8.5 100.7 -6.8Q100.7 -5.1 101.6 -4.1Q102.4 -3 103.8 -3ZM112.9 0V-8Q112.9 -9.9 113.6 -11.2Q114.4 -12.6 115.8 -13.3Q117.2 -14 119.1 -14Q121 -14 122.4 -13.3Q123.7 -12.6 124.5 -11.2Q125.3 -9.9 125.3 -8V0H121.4V-8Q121.4 -9.3 120.7 -10Q120.1 -10.7 119.1 -10.7Q118.1 -10.7 117.4 -10Q116.8 -9.3 116.8 -8V0ZM128.4 -5.3V-8.8H135.7V-5.3ZM139 0V-7.9Q139 -10.9 140.6 -12.5Q142.2 -14 145.2 -14Q145.5 -14 146.1 -14Q146.8 -14 147.5 -13.8V-10.5Q147 -10.6 146.6 -10.6Q146.2 -10.7 145.7 -10.7Q145 -10.7 144.3 -10.5Q143.7 -10.2 143.3 -9.6Q142.9 -9 142.9 -7.9V0ZM155.6 0.4Q153.5 0.4 151.9 -0.5Q150.4 -1.4 149.6 -3Q148.7 -4.6 148.7 -6.8Q148.7 -9 149.5 -10.7Q150.4 -12.3 151.9 -13.2Q153.4 -14 155.5 -14Q157.6 -14 159.1 -13.1Q160.6 -12.1 161.4 -10.3Q162.1 -8.5 162 -5.9H152.6Q152.8 -4.4 153.6 -3.5Q154.4 -2.6 155.7 -2.6Q156.8 -2.6 157.5 -3.2Q158.1 -3.7 158.3 -4.4H161.9Q161.7 -2.9 160.8 -1.9Q159.9 -0.8 158.6 -0.2Q157.2 0.4 155.6 0.4ZM155.5 -11.1Q154.3 -11.1 153.6 -10.3Q152.8 -9.6 152.6 -8.3H158.2Q158.1 -9.8 157.3 -10.4Q156.5 -11.1 155.5 -11.1ZM169 0.4Q166.2 0.4 164.7 -0.9Q163.1 -2.2 163.1 -4.4H166.5Q166.7 -3.4 167.4 -2.9Q168 -2.4 169 -2.4Q169.8 -2.4 170.4 -2.8Q170.9 -3.1 170.9 -3.7Q170.9 -4.2 170.5 -4.5Q170.1 -4.7 168.9 -5Q168.1 -5.2 167.5 -5.3Q166.9 -5.5 166.2 -5.7Q165.4 -6 164.7 -6.4Q164 -6.8 163.6 -7.5Q163.2 -8.3 163.2 -9.4Q163.2 -10.7 163.7 -11.6Q164.2 -12.5 165 -13Q165.8 -13.6 166.8 -13.8Q167.8 -14 168.8 -14Q170.4 -14 171.6 -13.5Q172.9 -12.9 173.6 -11.9Q174.3 -10.9 174.3 -9.6H170.7Q170.7 -10.3 170.1 -10.8Q169.4 -11.3 168.6 -11.3Q168 -11.3 167.4 -11Q166.8 -10.7 166.8 -10.1Q166.8 -9.6 167.1 -9.3Q167.5 -9 168.6 -8.7Q169 -8.6 169.6 -8.5Q170.2 -8.3 170.7 -8.2Q171.3 -8.1 171.6 -7.9Q173.2 -7.5 173.9 -6.6Q174.6 -5.6 174.6 -4.2Q174.6 -2 173.1 -0.8Q171.6 0.4 169 0.4ZM182.9 0.4Q180.8 0.4 179.3 -0.5Q177.8 -1.4 176.9 -3Q176.1 -4.6 176.1 -6.8Q176.1 -9 176.9 -10.7Q177.7 -12.3 179.3 -13.2Q180.8 -14 182.9 -14Q185 -14 186.5 -13.1Q188 -12.1 188.7 -10.3Q189.5 -8.5 189.4 -5.9H180Q180.2 -4.4 181 -3.5Q181.8 -2.6 183.1 -2.6Q184.2 -2.6 184.8 -3.2Q185.5 -3.7 185.7 -4.4H189.3Q189 -2.9 188.2 -1.9Q187.3 -0.8 186 -0.2Q184.6 0.4 182.9 0.4ZM182.9 -11.1Q181.7 -11.1 180.9 -10.3Q180.2 -9.6 180 -8.3H185.5Q185.4 -9.8 184.7 -10.4Q183.9 -11.1 182.9 -11.1ZM197 0.4Q195.2 0.4 193.8 -0.6Q192.4 -1.5 191.6 -3.2Q190.8 -4.8 190.8 -7Q190.8 -9 191.6 -10.6Q192.4 -12.2 193.7 -13.1Q195 -14 196.8 -14Q198.1 -14 199.2 -13.5Q200.2 -13 200.9 -12.1L201.1 -13.7H204.3V0H201.1L200.9 -1.8Q200.3 -0.8 199.2 -0.2Q198.2 0.4 197 0.4ZM197.7 -3Q199.1 -3 199.9 -4.1Q200.7 -5.2 200.7 -7Q200.7 -8.8 199.9 -9.8Q199.1 -10.8 197.7 -10.8Q196.4 -10.8 195.6 -9.8Q194.8 -8.8 194.8 -7Q194.8 -5.2 195.6 -4.1Q196.4 -3 197.7 -3ZM207.2 0V-7.9Q207.2 -10.9 208.8 -12.5Q210.4 -14 213.4 -14Q213.7 -14 214.4 -14Q215.1 -14 215.7 -13.8V-10.5Q215.3 -10.6 214.9 -10.6Q214.5 -10.7 214 -10.7Q213.2 -10.7 212.6 -10.5Q211.9 -10.2 211.5 -9.6Q211.1 -9 211.1 -7.9V0ZM223.6 0.4Q221.6 0.4 220.1 -0.6Q218.6 -1.5 217.8 -3.1Q217 -4.7 217 -6.8Q217 -8.9 217.8 -10.5Q218.6 -12.2 220.1 -13.1Q221.6 -14 223.7 -14Q225.5 -14 226.8 -13.4Q228.1 -12.7 228.9 -11.4Q229.6 -10.2 229.6 -8.5H225.9Q225.9 -9.5 225.3 -10.1Q224.7 -10.7 223.7 -10.7Q222.4 -10.7 221.7 -9.6Q220.9 -8.6 220.9 -6.8Q220.9 -5.1 221.7 -4Q222.4 -3 223.7 -3Q224.7 -3 225.4 -3.6Q226.1 -4.2 226.1 -5.1H229.8Q229.8 -4.2 229.4 -3.2Q229 -2.2 228.2 -1.4Q227.4 -0.6 226.2 -0.1Q225 0.4 223.6 0.4ZM231.6 0V-18H235.5V-12.1Q236.2 -13 237.1 -13.5Q238 -14 239.2 -14Q240.7 -14 241.8 -13.4Q243 -12.7 243.6 -11.6Q244.2 -10.4 244.2 -8.9V0H240.3V-8.1Q240.3 -9.3 239.7 -10Q239 -10.7 237.9 -10.7Q236.8 -10.7 236.2 -9.9Q235.5 -9.1 235.5 -7.8V0Z" fill="#1D1D1B" opacity="1" /><g opacity="0"><animate attributeName="opacity" values="0;1" begin="0.2s" dur="0.8s" fill="freeze"/><path transform="translate(24.0 80.0)" d="M1.2 0V-10.2H7.5V-9.1H2.5V-5.7H7.1V-4.6H2.5V-1.1H7.5V0ZM11.6 0 8.7 -7.5H10L11.6 -3.1Q11.9 -2.4 12 -1.8Q12.2 -1.1 12.4 -0.5H12Q12.2 -1.1 12.4 -1.8Q12.6 -2.4 12.8 -3.1L14.4 -7.5H15.7L12.8 0ZM17.1 0V-7.5H18.3V0ZM17.7 -8.8Q17.4 -8.8 17.1 -9.1Q16.9 -9.3 16.9 -9.6Q16.9 -10 17.1 -10.2Q17.4 -10.5 17.7 -10.5Q18 -10.5 18.3 -10.2Q18.5 -10 18.5 -9.6Q18.5 -9.3 18.3 -9.1Q18 -8.8 17.7 -8.8ZM23.2 0.2Q22.3 0.2 21.5 -0.3Q20.8 -0.8 20.4 -1.7Q20 -2.6 20 -3.8Q20 -4.9 20.4 -5.8Q20.8 -6.7 21.5 -7.2Q22.3 -7.7 23.2 -7.7Q23.9 -7.7 24.3 -7.4Q24.8 -7.2 25 -6.9Q25.3 -6.6 25.4 -6.4H25.5V-10.2H26.7V0H25.6V-1.2H25.5Q25.3 -0.9 25 -0.6Q24.8 -0.3 24.3 -0.1Q23.9 0.2 23.2 0.2ZM23.4 -0.9Q24.1 -0.9 24.6 -1.3Q25 -1.6 25.3 -2.3Q25.6 -2.9 25.6 -3.8Q25.6 -4.6 25.3 -5.2Q25.1 -5.9 24.6 -6.2Q24.1 -6.6 23.4 -6.6Q22.7 -6.6 22.2 -6.2Q21.7 -5.8 21.5 -5.2Q21.2 -4.6 21.2 -3.8Q21.2 -3 21.5 -2.3Q21.7 -1.7 22.2 -1.3Q22.7 -0.9 23.4 -0.9ZM32 0.2Q30.9 0.2 30.1 -0.3Q29.3 -0.8 28.9 -1.7Q28.4 -2.6 28.4 -3.7Q28.4 -4.9 28.9 -5.8Q29.3 -6.7 30 -7.2Q30.8 -7.7 31.8 -7.7Q32.5 -7.7 33.1 -7.4Q33.7 -7.2 34.1 -6.8Q34.6 -6.3 34.9 -5.6Q35.2 -4.9 35.2 -3.8V-3.4H29.2V-4.4H34.5L33.9 -4Q33.9 -4.8 33.7 -5.4Q33.4 -5.9 33 -6.3Q32.5 -6.6 31.8 -6.6Q31.2 -6.6 30.7 -6.2Q30.2 -5.9 29.9 -5.4Q29.7 -4.8 29.7 -4.2V-3.5Q29.7 -2.7 29.9 -2.1Q30.2 -1.5 30.7 -1.2Q31.3 -0.9 32 -0.9Q32.4 -0.9 32.8 -1.1Q33.2 -1.2 33.4 -1.5Q33.7 -1.7 33.8 -2.1L35 -1.9Q34.9 -1.3 34.4 -0.8Q34 -0.3 33.4 -0.1Q32.7 0.2 32 0.2ZM38 -4.5V0H36.8V-7.5H38L38 -5.7H37.8Q38.1 -6.8 38.8 -7.2Q39.4 -7.7 40.3 -7.7Q41.1 -7.7 41.6 -7.3Q42.2 -7 42.6 -6.4Q42.9 -5.7 42.9 -4.8V0H41.7V-4.7Q41.7 -5.6 41.2 -6.1Q40.8 -6.6 40 -6.6Q39.4 -6.6 39 -6.3Q38.5 -6.1 38.3 -5.6Q38 -5.2 38 -4.5ZM48 0.2Q47 0.2 46.2 -0.3Q45.5 -0.8 45 -1.7Q44.6 -2.6 44.6 -3.7Q44.6 -4.9 45 -5.8Q45.5 -6.7 46.2 -7.2Q47 -7.7 48 -7.7Q48.6 -7.7 49.1 -7.5Q49.6 -7.4 50 -7.1Q50.4 -6.8 50.7 -6.4Q51 -6 51.1 -5.5L49.9 -5.2Q49.9 -5.5 49.7 -5.7Q49.5 -6 49.3 -6.2Q49 -6.4 48.7 -6.5Q48.4 -6.6 48 -6.6Q47.3 -6.6 46.8 -6.2Q46.3 -5.8 46.1 -5.2Q45.8 -4.5 45.8 -3.7Q45.8 -3 46.1 -2.3Q46.3 -1.7 46.8 -1.3Q47.3 -0.9 48 -0.9Q48.4 -0.9 48.7 -1Q49.1 -1.1 49.3 -1.3Q49.5 -1.5 49.7 -1.8Q49.9 -2 50 -2.3L51.1 -2.1Q51 -1.6 50.7 -1.2Q50.4 -0.7 50 -0.4Q49.6 -0.2 49.1 0Q48.6 0.2 48 0.2ZM56 0.2Q54.9 0.2 54.1 -0.3Q53.3 -0.8 52.9 -1.7Q52.4 -2.6 52.4 -3.7Q52.4 -4.9 52.9 -5.8Q53.3 -6.7 54 -7.2Q54.8 -7.7 55.8 -7.7Q56.5 -7.7 57.1 -7.4Q57.7 -7.2 58.1 -6.8Q58.6 -6.3 58.9 -5.6Q59.2 -4.9 59.2 -3.8V-3.4H53.2V-4.4H58.5L57.9 -4Q57.9 -4.8 57.7 -5.4Q57.4 -5.9 57 -6.3Q56.5 -6.6 55.8 -6.6Q55.2 -6.6 54.7 -6.2Q54.2 -5.9 53.9 -5.4Q53.7 -4.8 53.7 -4.2V-3.5Q53.7 -2.7 53.9 -2.1Q54.2 -1.5 54.7 -1.2Q55.3 -0.9 56 -0.9Q56.4 -0.9 56.8 -1.1Q57.2 -1.2 57.4 -1.5Q57.7 -1.7 57.8 -2.1L59 -1.9Q58.9 -1.3 58.4 -0.8Q58 -0.3 57.4 -0.1Q56.7 0.2 56 0.2ZM67.7 0.2Q66.7 0.2 65.9 -0.3Q65.2 -0.8 64.7 -1.7Q64.3 -2.6 64.3 -3.7Q64.3 -4.9 64.7 -5.8Q65.2 -6.7 65.9 -7.2Q66.7 -7.7 67.7 -7.7Q68.3 -7.7 68.8 -7.5Q69.3 -7.4 69.7 -7.1Q70.1 -6.8 70.4 -6.4Q70.7 -6 70.8 -5.5L69.6 -5.2Q69.6 -5.5 69.4 -5.7Q69.2 -6 69 -6.2Q68.8 -6.4 68.4 -6.5Q68.1 -6.6 67.7 -6.6Q67 -6.6 66.5 -6.2Q66 -5.8 65.8 -5.2Q65.5 -4.5 65.5 -3.7Q65.5 -3 65.8 -2.3Q66 -1.7 66.5 -1.3Q67 -0.9 67.7 -0.9Q68.1 -0.9 68.4 -1Q68.8 -1.1 69 -1.3Q69.3 -1.5 69.4 -1.8Q69.6 -2 69.7 -2.3L70.8 -2.1Q70.7 -1.6 70.4 -1.2Q70.1 -0.7 69.7 -0.4Q69.3 -0.2 68.8 0Q68.3 0.2 67.7 0.2ZM75.6 0.2Q74.6 0.2 73.8 -0.3Q73 -0.8 72.6 -1.7Q72.1 -2.6 72.1 -3.7Q72.1 -4.9 72.6 -5.8Q73 -6.7 73.8 -7.2Q74.6 -7.7 75.6 -7.7Q76.6 -7.7 77.4 -7.2Q78.2 -6.7 78.6 -5.8Q79.1 -4.9 79.1 -3.7Q79.1 -2.6 78.6 -1.7Q78.2 -0.8 77.4 -0.3Q76.6 0.2 75.6 0.2ZM75.6 -0.9Q76.3 -0.9 76.8 -1.3Q77.3 -1.7 77.6 -2.3Q77.8 -3 77.8 -3.7Q77.8 -4.5 77.6 -5.2Q77.3 -5.8 76.8 -6.2Q76.3 -6.6 75.6 -6.6Q74.8 -6.6 74.4 -6.2Q73.9 -5.8 73.6 -5.2Q73.4 -4.5 73.4 -3.7Q73.4 -3 73.6 -2.3Q73.9 -1.7 74.4 -1.3Q74.8 -0.9 75.6 -0.9ZM80.7 0V-7.5H81.9V-6.4H82Q82.2 -7 82.7 -7.3Q83.2 -7.7 83.9 -7.7Q84.1 -7.7 84.2 -7.6Q84.4 -7.6 84.5 -7.6V-6.4Q84.5 -6.4 84.2 -6.5Q84 -6.5 83.8 -6.5Q83.3 -6.5 82.8 -6.3Q82.4 -6 82.2 -5.6Q82 -5.2 82 -4.7V0ZM85.8 2.9V-7.5H87V-6.4H87.1Q87.3 -6.6 87.5 -6.9Q87.8 -7.2 88.2 -7.4Q88.7 -7.7 89.4 -7.7Q90.3 -7.7 91 -7.2Q91.8 -6.7 92.2 -5.8Q92.6 -4.9 92.6 -3.8Q92.6 -2.6 92.2 -1.7Q91.8 -0.8 91 -0.3Q90.3 0.2 89.4 0.2Q88.7 0.2 88.3 -0.1Q87.8 -0.3 87.6 -0.6Q87.3 -0.9 87.1 -1.2H87.1V2.9ZM89.2 -0.9Q89.9 -0.9 90.4 -1.3Q90.8 -1.7 91.1 -2.3Q91.3 -3 91.3 -3.8Q91.3 -4.6 91.1 -5.2Q90.8 -5.8 90.4 -6.2Q89.9 -6.6 89.2 -6.6Q88.5 -6.6 88 -6.2Q87.5 -5.9 87.3 -5.2Q87 -4.6 87 -3.8Q87 -2.9 87.3 -2.3Q87.5 -1.6 88 -1.3Q88.5 -0.9 89.2 -0.9ZM96.9 0.1Q96.1 0.1 95.5 -0.2Q94.9 -0.5 94.6 -1.2Q94.3 -1.8 94.3 -2.8V-7.5H95.5V-2.9Q95.5 -2 96 -1.5Q96.4 -1 97.2 -1Q97.8 -1 98.2 -1.2Q98.6 -1.5 98.9 -1.9Q99.1 -2.4 99.1 -3V-7.5H100.4V0H99.2V-1.8H99.4Q99 -0.8 98.4 -0.3Q97.7 0.1 96.9 0.1ZM105 0.2Q104.2 0.2 103.6 -0.1Q103 -0.3 102.6 -0.8Q102.2 -1.2 102.1 -1.9L103.2 -2.1Q103.4 -1.5 103.8 -1.2Q104.3 -0.9 105 -0.9Q105.8 -0.9 106.2 -1.2Q106.7 -1.6 106.7 -2Q106.7 -2.4 106.4 -2.7Q106.1 -3 105.6 -3.1L104.3 -3.4Q103.3 -3.6 102.8 -4.1Q102.3 -4.7 102.3 -5.5Q102.3 -6.1 102.7 -6.6Q103 -7.1 103.6 -7.4Q104.3 -7.7 105.1 -7.7Q105.9 -7.7 106.4 -7.4Q107 -7.2 107.3 -6.7Q107.7 -6.3 107.8 -5.7L106.7 -5.5Q106.6 -5.9 106.2 -6.3Q105.8 -6.6 105.1 -6.6Q104.4 -6.6 104 -6.3Q103.5 -6 103.5 -5.5Q103.5 -5.1 103.8 -4.8Q104.1 -4.6 104.8 -4.4L105.9 -4.2Q107 -3.9 107.5 -3.4Q108 -2.9 108 -2.1Q108 -1.4 107.6 -0.9Q107.2 -0.4 106.5 -0.1Q105.9 0.2 105 0.2ZM110.5 0.1Q110.1 0.1 109.9 -0.2Q109.6 -0.4 109.6 -0.8Q109.6 -1.2 109.9 -1.5Q110.1 -1.7 110.5 -1.7Q110.9 -1.7 111.2 -1.5Q111.4 -1.2 111.4 -0.8Q111.4 -0.4 111.2 -0.2Q110.9 0.1 110.5 0.1ZM110.5 -5.4Q110.1 -5.4 109.9 -5.7Q109.6 -5.9 109.6 -6.3Q109.6 -6.7 109.9 -6.9Q110.1 -7.2 110.5 -7.2Q110.9 -7.2 111.2 -6.9Q111.4 -6.7 111.4 -6.3Q111.4 -5.9 111.2 -5.7Q110.9 -5.4 110.5 -5.4ZM119.5 0.2Q118.7 0.2 118.1 -0.1Q117.6 -0.4 117.2 -0.9Q116.9 -1.4 116.9 -2.2Q116.9 -2.8 117.1 -3.2Q117.4 -3.6 117.8 -3.8Q118.2 -4.1 118.8 -4.2Q119.3 -4.3 119.8 -4.4Q120.5 -4.5 120.9 -4.5Q121.4 -4.6 121.6 -4.7Q121.8 -4.8 121.8 -5.1V-5.1Q121.8 -5.6 121.6 -5.9Q121.4 -6.2 121 -6.4Q120.7 -6.6 120.2 -6.6Q119.6 -6.6 119.2 -6.4Q118.8 -6.2 118.6 -6Q118.4 -5.7 118.3 -5.4L117.1 -5.7Q117.3 -6.4 117.8 -6.8Q118.3 -7.3 118.9 -7.5Q119.5 -7.7 120.1 -7.7Q120.6 -7.7 121.1 -7.5Q121.5 -7.4 122 -7.2Q122.4 -6.9 122.7 -6.4Q123 -5.8 123 -5V0H121.8V-1H121.7Q121.6 -0.8 121.3 -0.5Q121 -0.2 120.6 -0Q120.1 0.2 119.5 0.2ZM119.7 -0.9Q120.3 -0.9 120.8 -1.2Q121.3 -1.4 121.5 -1.9Q121.8 -2.3 121.8 -2.8V-3.8Q121.7 -3.7 121.4 -3.6Q121.2 -3.6 120.9 -3.5Q120.6 -3.5 120.3 -3.4Q120 -3.4 119.8 -3.3Q119.3 -3.3 118.9 -3.2Q118.6 -3 118.3 -2.8Q118.1 -2.5 118.1 -2.1Q118.1 -1.7 118.3 -1.4Q118.5 -1.2 118.8 -1Q119.2 -0.9 119.7 -0.9ZM127.6 0.1Q126.9 0.1 126.3 -0.2Q125.7 -0.5 125.4 -1.2Q125 -1.8 125 -2.8V-7.5H126.2V-2.9Q126.2 -2 126.7 -1.5Q127.2 -1 128 -1Q128.5 -1 128.9 -1.2Q129.4 -1.5 129.6 -1.9Q129.9 -2.4 129.9 -3V-7.5H131.1V0H129.9V-1.8H130.1Q129.8 -0.8 129.1 -0.3Q128.5 0.1 127.6 0.1ZM136.2 -7.5V-6.5H132.3V-7.5ZM133.4 -9.4H134.7V-1.9Q134.7 -1.4 134.9 -1.2Q135.1 -1 135.5 -1Q135.7 -1 135.8 -1Q136 -1 136.2 -1.1L136.4 -0Q136.2 0 135.9 0Q135.7 0.1 135.5 0.1Q134.5 0.1 134 -0.4Q133.4 -0.9 133.4 -1.8ZM140.8 0.2Q139.8 0.2 139 -0.3Q138.2 -0.8 137.8 -1.7Q137.3 -2.6 137.3 -3.7Q137.3 -4.9 137.8 -5.8Q138.2 -6.7 139 -7.2Q139.8 -7.7 140.8 -7.7Q141.8 -7.7 142.6 -7.2Q143.4 -6.7 143.8 -5.8Q144.2 -4.9 144.2 -3.7Q144.2 -2.6 143.8 -1.7Q143.4 -0.8 142.6 -0.3Q141.8 0.2 140.8 0.2ZM140.8 -0.9Q141.5 -0.9 142 -1.3Q142.5 -1.7 142.8 -2.3Q143 -3 143 -3.7Q143 -4.5 142.8 -5.2Q142.5 -5.8 142 -6.2Q141.5 -6.6 140.8 -6.6Q140 -6.6 139.5 -6.2Q139.1 -5.8 138.8 -5.2Q138.6 -4.5 138.6 -3.7Q138.6 -3 138.8 -2.3Q139.1 -1.7 139.5 -1.3Q140 -0.9 140.8 -0.9ZM147.2 -4.5V0H145.9V-7.5H147.1L147.1 -5.7H146.9Q147.3 -6.8 147.9 -7.2Q148.5 -7.7 149.4 -7.7Q150.2 -7.7 150.8 -7.3Q151.3 -7 151.7 -6.4Q152 -5.7 152 -4.8V0H150.8V-4.7Q150.8 -5.6 150.3 -6.1Q149.9 -6.6 149.1 -6.6Q148.5 -6.6 148.1 -6.3Q147.7 -6.1 147.4 -5.6Q147.2 -5.2 147.2 -4.5ZM157.2 0.2Q156.1 0.2 155.4 -0.3Q154.6 -0.8 154.1 -1.7Q153.7 -2.6 153.7 -3.7Q153.7 -4.9 154.1 -5.8Q154.6 -6.7 155.4 -7.2Q156.1 -7.7 157.2 -7.7Q158.2 -7.7 159 -7.2Q159.7 -6.7 160.2 -5.8Q160.6 -4.9 160.6 -3.7Q160.6 -2.6 160.2 -1.7Q159.7 -0.8 159 -0.3Q158.2 0.2 157.2 0.2ZM157.2 -0.9Q157.9 -0.9 158.4 -1.3Q158.9 -1.7 159.1 -2.3Q159.4 -3 159.4 -3.7Q159.4 -4.5 159.1 -5.2Q158.9 -5.8 158.4 -6.2Q157.9 -6.6 157.2 -6.6Q156.4 -6.6 155.9 -6.2Q155.4 -5.8 155.2 -5.2Q154.9 -4.5 154.9 -3.7Q154.9 -3 155.2 -2.3Q155.4 -1.7 155.9 -1.3Q156.4 -0.9 157.2 -0.9ZM162.3 0V-7.5H163.5L163.5 -5.9H163.4Q163.6 -6.5 163.9 -6.9Q164.2 -7.3 164.7 -7.5Q165.1 -7.7 165.6 -7.7Q166.5 -7.7 167 -7.2Q167.5 -6.7 167.7 -5.9H167.5Q167.7 -6.4 168 -6.8Q168.4 -7.2 168.9 -7.5Q169.4 -7.7 170 -7.7Q170.7 -7.7 171.2 -7.4Q171.7 -7.1 172.1 -6.5Q172.4 -5.9 172.4 -5.1V0H171.2V-5Q171.2 -5.9 170.7 -6.2Q170.2 -6.6 169.6 -6.6Q169.1 -6.6 168.7 -6.4Q168.4 -6.1 168.2 -5.8Q168 -5.4 168 -4.9V0H166.7V-5.2Q166.7 -5.8 166.3 -6.2Q165.9 -6.6 165.2 -6.6Q164.8 -6.6 164.4 -6.4Q164 -6.2 163.8 -5.7Q163.5 -5.3 163.5 -4.7V0ZM177.5 0.2Q176.5 0.2 175.7 -0.3Q175 -0.8 174.5 -1.7Q174.1 -2.6 174.1 -3.7Q174.1 -4.9 174.5 -5.8Q175 -6.7 175.7 -7.2Q176.5 -7.7 177.5 -7.7Q178.6 -7.7 179.4 -7.2Q180.1 -6.7 180.6 -5.8Q181 -4.9 181 -3.7Q181 -2.6 180.6 -1.7Q180.1 -0.8 179.4 -0.3Q178.6 0.2 177.5 0.2ZM177.5 -0.9Q178.3 -0.9 178.8 -1.3Q179.3 -1.7 179.5 -2.3Q179.8 -3 179.8 -3.7Q179.8 -4.5 179.5 -5.2Q179.3 -5.8 178.8 -6.2Q178.3 -6.6 177.5 -6.6Q176.8 -6.6 176.3 -6.2Q175.8 -5.8 175.6 -5.2Q175.3 -4.5 175.3 -3.7Q175.3 -3 175.6 -2.3Q175.8 -1.7 176.3 -1.3Q176.8 -0.9 177.5 -0.9ZM185.3 0.1Q184.5 0.1 183.9 -0.2Q183.4 -0.5 183 -1.2Q182.7 -1.8 182.7 -2.8V-7.5H183.9V-2.9Q183.9 -2 184.4 -1.5Q184.8 -1 185.6 -1Q186.2 -1 186.6 -1.2Q187 -1.5 187.3 -1.9Q187.6 -2.4 187.6 -3V-7.5H188.8V0H187.6V-1.8H187.8Q187.4 -0.8 186.8 -0.3Q186.1 0.1 185.3 0.1ZM193.4 0.2Q192.6 0.2 192 -0.1Q191.4 -0.3 191 -0.8Q190.6 -1.2 190.5 -1.9L191.7 -2.1Q191.8 -1.5 192.3 -1.2Q192.7 -0.9 193.4 -0.9Q194.2 -0.9 194.7 -1.2Q195.1 -1.6 195.1 -2Q195.1 -2.4 194.8 -2.7Q194.6 -3 194 -3.1L192.8 -3.4Q191.7 -3.6 191.2 -4.1Q190.7 -4.7 190.7 -5.5Q190.7 -6.1 191.1 -6.6Q191.4 -7.1 192.1 -7.4Q192.7 -7.7 193.5 -7.7Q194.3 -7.7 194.8 -7.4Q195.4 -7.2 195.7 -6.7Q196.1 -6.3 196.2 -5.7L195.1 -5.5Q195 -5.9 194.6 -6.3Q194.2 -6.6 193.5 -6.6Q192.8 -6.6 192.4 -6.3Q191.9 -6 191.9 -5.5Q191.9 -5.1 192.2 -4.8Q192.6 -4.6 193.2 -4.4L194.3 -4.2Q195.4 -3.9 195.9 -3.4Q196.4 -2.9 196.4 -2.1Q196.4 -1.4 196 -0.9Q195.6 -0.4 195 -0.1Q194.3 0.2 193.4 0.2ZM201.2 0 204.9 -10.2H206.4L210.1 0H208.8L206.6 -6.1Q206.4 -6.6 206.1 -7.5Q205.9 -8.3 205.5 -9.6H205.8Q205.4 -8.3 205.1 -7.4Q204.8 -6.6 204.7 -6.1L202.5 0ZM203.1 -2.8V-4H208.2V-2.8ZM212.9 -10.2V0H211.6V-10.2ZM218.9 2.9V-7.5H220.1V-6.4H220.2Q220.4 -6.6 220.6 -6.9Q220.9 -7.2 221.3 -7.4Q221.8 -7.7 222.5 -7.7Q223.4 -7.7 224.1 -7.2Q224.9 -6.7 225.3 -5.8Q225.7 -4.9 225.7 -3.8Q225.7 -2.6 225.3 -1.7Q224.9 -0.8 224.1 -0.3Q223.4 0.2 222.5 0.2Q221.8 0.2 221.4 -0.1Q220.9 -0.3 220.7 -0.6Q220.4 -0.9 220.2 -1.2H220.2V2.9ZM222.3 -0.9Q223 -0.9 223.5 -1.3Q223.9 -1.7 224.2 -2.3Q224.4 -3 224.4 -3.8Q224.4 -4.6 224.2 -5.2Q223.9 -5.8 223.5 -6.2Q223 -6.6 222.3 -6.6Q221.6 -6.6 221.1 -6.2Q220.6 -5.9 220.4 -5.2Q220.1 -4.6 220.1 -3.8Q220.1 -2.9 220.4 -2.3Q220.6 -1.6 221.1 -1.3Q221.6 -0.9 222.3 -0.9ZM230.5 0.2Q229.4 0.2 228.6 -0.3Q227.8 -0.8 227.4 -1.7Q227 -2.6 227 -3.7Q227 -4.9 227.4 -5.8Q227.8 -6.7 228.6 -7.2Q229.4 -7.7 230.4 -7.7Q231 -7.7 231.6 -7.4Q232.2 -7.2 232.7 -6.8Q233.2 -6.3 233.4 -5.6Q233.7 -4.9 233.7 -3.8V-3.4H227.8V-4.4H233.1L232.5 -4Q232.5 -4.8 232.3 -5.4Q232 -5.9 231.6 -6.3Q231.1 -6.6 230.4 -6.6Q229.7 -6.6 229.2 -6.2Q228.7 -5.9 228.5 -5.4Q228.2 -4.8 228.2 -4.2V-3.5Q228.2 -2.7 228.5 -2.1Q228.8 -1.5 229.3 -1.2Q229.8 -0.9 230.5 -0.9Q231 -0.9 231.4 -1.1Q231.7 -1.2 232 -1.5Q232.3 -1.7 232.4 -2.1L233.6 -1.9Q233.4 -1.3 233 -0.8Q232.6 -0.3 231.9 -0.1Q231.3 0.2 230.5 0.2ZM236.6 -4.5V0H235.4V-7.5H236.6L236.6 -5.7H236.4Q236.7 -6.8 237.4 -7.2Q238 -7.7 238.9 -7.7Q239.6 -7.7 240.2 -7.3Q240.8 -7 241.1 -6.4Q241.5 -5.7 241.5 -4.8V0H240.2V-4.7Q240.2 -5.6 239.8 -6.1Q239.3 -6.6 238.5 -6.6Q238 -6.6 237.5 -6.3Q237.1 -6.1 236.9 -5.6Q236.6 -5.2 236.6 -4.5ZM246.7 0.2Q245.6 0.2 244.8 -0.3Q244 -0.8 243.6 -1.7Q243.2 -2.6 243.2 -3.7Q243.2 -4.9 243.6 -5.8Q244 -6.7 244.8 -7.2Q245.5 -7.7 246.6 -7.7Q247.2 -7.7 247.8 -7.4Q248.4 -7.2 248.9 -6.8Q249.3 -6.3 249.6 -5.6Q249.9 -4.9 249.9 -3.8V-3.4H243.9V-4.4H249.2L248.7 -4Q248.7 -4.8 248.4 -5.4Q248.2 -5.9 247.7 -6.3Q247.2 -6.6 246.6 -6.6Q245.9 -6.6 245.4 -6.2Q244.9 -5.9 244.6 -5.4Q244.4 -4.8 244.4 -4.2V-3.5Q244.4 -2.7 244.7 -2.1Q244.9 -1.5 245.5 -1.2Q246 -0.9 246.7 -0.9Q247.2 -0.9 247.5 -1.1Q247.9 -1.2 248.2 -1.5Q248.4 -1.7 248.6 -2.1L249.8 -1.9Q249.6 -1.3 249.2 -0.8Q248.7 -0.3 248.1 -0.1Q247.5 0.2 246.7 0.2ZM254.6 -7.5V-6.5H250.6V-7.5ZM251.8 -9.4H253V-1.9Q253 -1.4 253.2 -1.2Q253.4 -1 253.9 -1Q254 -1 254.2 -1Q254.4 -1 254.5 -1.1L254.7 -0Q254.6 0 254.3 0Q254.1 0.1 253.9 0.1Q252.9 0.1 252.3 -0.4Q251.8 -0.9 251.8 -1.8ZM256.1 0V-7.5H257.2V-6.4H257.3Q257.5 -7 258 -7.3Q258.6 -7.7 259.2 -7.7Q259.4 -7.7 259.6 -7.6Q259.7 -7.6 259.8 -7.6V-6.4Q259.8 -6.4 259.6 -6.5Q259.3 -6.5 259.1 -6.5Q258.6 -6.5 258.2 -6.3Q257.8 -6 257.5 -5.6Q257.3 -5.2 257.3 -4.7V0ZM263.3 0.2Q262.6 0.2 262 -0.1Q261.4 -0.4 261.1 -0.9Q260.7 -1.4 260.7 -2.2Q260.7 -2.8 261 -3.2Q261.3 -3.6 261.7 -3.8Q262.1 -4.1 262.6 -4.2Q263.2 -4.3 263.7 -4.4Q264.4 -4.5 264.8 -4.5Q265.2 -4.6 265.4 -4.7Q265.6 -4.8 265.6 -5.1V-5.1Q265.6 -5.6 265.4 -5.9Q265.3 -6.2 264.9 -6.4Q264.6 -6.6 264 -6.6Q263.5 -6.6 263.1 -6.4Q262.7 -6.2 262.5 -6Q262.2 -5.7 262.1 -5.4L260.9 -5.7Q261.2 -6.4 261.7 -6.8Q262.1 -7.3 262.7 -7.5Q263.3 -7.7 264 -7.7Q264.4 -7.7 264.9 -7.5Q265.4 -7.4 265.9 -7.2Q266.3 -6.9 266.6 -6.4Q266.8 -5.8 266.8 -5V0H265.6V-1H265.6Q265.4 -0.8 265.2 -0.5Q264.9 -0.2 264.4 -0Q264 0.2 263.3 0.2ZM263.5 -0.9Q264.2 -0.9 264.7 -1.2Q265.1 -1.4 265.4 -1.9Q265.6 -2.3 265.6 -2.8V-3.8Q265.5 -3.7 265.3 -3.6Q265.1 -3.6 264.8 -3.5Q264.5 -3.5 264.2 -3.4Q263.8 -3.4 263.6 -3.3Q263.2 -3.3 262.8 -3.2Q262.4 -3 262.2 -2.8Q262 -2.5 262 -2.1Q262 -1.7 262.2 -1.4Q262.4 -1.2 262.7 -1Q263.1 -0.9 263.5 -0.9ZM271.9 -7.5V-6.5H268V-7.5ZM269.2 -9.4H270.4V-1.9Q270.4 -1.4 270.6 -1.2Q270.8 -1 271.3 -1Q271.4 -1 271.6 -1Q271.8 -1 271.9 -1.1L272.1 -0Q271.9 0 271.7 0Q271.4 0.1 271.2 0.1Q270.2 0.1 269.7 -0.4Q269.2 -0.9 269.2 -1.8ZM273.4 0V-7.5H274.6V0ZM274 -8.8Q273.7 -8.8 273.4 -9.1Q273.2 -9.3 273.2 -9.6Q273.2 -10 273.4 -10.2Q273.7 -10.5 274 -10.5Q274.4 -10.5 274.6 -10.2Q274.9 -10 274.9 -9.6Q274.9 -9.3 274.6 -9.1Q274.4 -8.8 274 -8.8ZM279.8 0.2Q278.8 0.2 278 -0.3Q277.2 -0.8 276.8 -1.7Q276.3 -2.6 276.3 -3.7Q276.3 -4.9 276.8 -5.8Q277.2 -6.7 278 -7.2Q278.8 -7.7 279.8 -7.7Q280.8 -7.7 281.6 -7.2Q282.4 -6.7 282.8 -5.8Q283.3 -4.9 283.3 -3.7Q283.3 -2.6 282.8 -1.7Q282.4 -0.8 281.6 -0.3Q280.8 0.2 279.8 0.2ZM279.8 -0.9Q280.5 -0.9 281 -1.3Q281.5 -1.7 281.8 -2.3Q282 -3 282 -3.7Q282 -4.5 281.8 -5.2Q281.5 -5.8 281 -6.2Q280.5 -6.6 279.8 -6.6Q279 -6.6 278.6 -6.2Q278.1 -5.8 277.8 -5.2Q277.6 -4.5 277.6 -3.7Q277.6 -3 277.8 -2.3Q278.1 -1.7 278.6 -1.3Q279 -0.9 279.8 -0.9ZM286.2 -4.5V0H284.9V-7.5H286.1L286.1 -5.7H285.9Q286.3 -6.8 286.9 -7.2Q287.6 -7.7 288.4 -7.7Q289.2 -7.7 289.8 -7.3Q290.4 -7 290.7 -6.4Q291 -5.7 291 -4.8V0H289.8V-4.7Q289.8 -5.6 289.3 -6.1Q288.9 -6.6 288.1 -6.6Q287.5 -6.6 287.1 -6.3Q286.7 -6.1 286.4 -5.6Q286.2 -5.2 286.2 -4.5ZM300 -7.5V-6.5H296V-7.5ZM297.2 -9.4H298.4V-1.9Q298.4 -1.4 298.6 -1.2Q298.8 -1 299.3 -1Q299.4 -1 299.6 -1Q299.8 -1 299.9 -1.1L300.1 -0Q299.9 0 299.7 0Q299.5 0.1 299.2 0.1Q298.3 0.1 297.7 -0.4Q297.2 -0.9 297.2 -1.8ZM304.6 0.2Q303.5 0.2 302.7 -0.3Q301.9 -0.8 301.5 -1.7Q301.1 -2.6 301.1 -3.7Q301.1 -4.9 301.5 -5.8Q301.9 -6.7 302.7 -7.2Q303.5 -7.7 304.5 -7.7Q305.1 -7.7 305.7 -7.4Q306.3 -7.2 306.8 -6.8Q307.3 -6.3 307.5 -5.6Q307.8 -4.9 307.8 -3.8V-3.4H301.9V-4.4H307.1L306.6 -4Q306.6 -4.8 306.3 -5.4Q306.1 -5.9 305.6 -6.3Q305.2 -6.6 304.5 -6.6Q303.8 -6.6 303.3 -6.2Q302.8 -5.9 302.6 -5.4Q302.3 -4.8 302.3 -4.2V-3.5Q302.3 -2.7 302.6 -2.1Q302.9 -1.5 303.4 -1.2Q303.9 -0.9 304.6 -0.9Q305.1 -0.9 305.5 -1.1Q305.8 -1.2 306.1 -1.5Q306.4 -1.7 306.5 -2.1L307.7 -1.9Q307.5 -1.3 307.1 -0.8Q306.7 -0.3 306 -0.1Q305.4 0.2 304.6 0.2ZM312.1 0.2Q311.3 0.2 310.7 -0.1Q310 -0.3 309.6 -0.8Q309.3 -1.2 309.1 -1.9L310.3 -2.1Q310.4 -1.5 310.9 -1.2Q311.3 -0.9 312 -0.9Q312.8 -0.9 313.3 -1.2Q313.8 -1.6 313.8 -2Q313.8 -2.4 313.5 -2.7Q313.2 -3 312.6 -3.1L311.4 -3.4Q310.4 -3.6 309.9 -4.1Q309.4 -4.7 309.4 -5.5Q309.4 -6.1 309.7 -6.6Q310.1 -7.1 310.7 -7.4Q311.3 -7.7 312.1 -7.7Q312.9 -7.7 313.5 -7.4Q314 -7.2 314.4 -6.7Q314.7 -6.3 314.9 -5.7L313.7 -5.5Q313.6 -5.9 313.2 -6.3Q312.9 -6.6 312.1 -6.6Q311.5 -6.6 311 -6.3Q310.6 -6 310.6 -5.5Q310.6 -5.1 310.9 -4.8Q311.2 -4.6 311.8 -4.4L313 -4.2Q314 -3.9 314.5 -3.4Q315 -2.9 315 -2.1Q315 -1.4 314.6 -0.9Q314.3 -0.4 313.6 -0.1Q312.9 0.2 312.1 0.2ZM319.7 -7.5V-6.5H315.8V-7.5ZM317 -9.4H318.2V-1.9Q318.2 -1.4 318.4 -1.2Q318.6 -1 319.1 -1Q319.2 -1 319.4 -1Q319.6 -1 319.7 -1.1L319.9 -0Q319.7 0 319.5 0Q319.2 0.1 319 0.1Q318 0.1 317.5 -0.4Q317 -0.9 317 -1.8ZM321.2 0V-7.5H322.5V0ZM321.8 -8.8Q321.5 -8.8 321.3 -9.1Q321 -9.3 321 -9.6Q321 -10 321.3 -10.2Q321.5 -10.5 321.8 -10.5Q322.2 -10.5 322.4 -10.2Q322.7 -10 322.7 -9.6Q322.7 -9.3 322.4 -9.1Q322.2 -8.8 321.8 -8.8ZM325.7 -4.5V0H324.5V-7.5H325.7L325.7 -5.7H325.5Q325.8 -6.8 326.5 -7.2Q327.1 -7.7 328 -7.7Q328.8 -7.7 329.3 -7.3Q329.9 -7 330.3 -6.4Q330.6 -5.7 330.6 -4.8V0H329.4V-4.7Q329.4 -5.6 328.9 -6.1Q328.5 -6.6 327.7 -6.6Q327.1 -6.6 326.7 -6.3Q326.2 -6.1 326 -5.6Q325.7 -5.2 325.7 -4.5ZM335.7 3Q334.9 3 334.3 2.8Q333.6 2.6 333.2 2.2Q332.8 1.8 332.6 1.3L333.6 0.8Q333.8 1.1 334 1.3Q334.3 1.6 334.7 1.8Q335.1 1.9 335.7 1.9Q336.6 1.9 337.2 1.5Q337.8 1 337.8 0.1V-1.3H337.7Q337.6 -1.1 337.3 -0.8Q337 -0.5 336.6 -0.3Q336.2 -0.1 335.5 -0.1Q334.6 -0.1 333.8 -0.5Q333.1 -1 332.7 -1.8Q332.3 -2.6 332.3 -3.8Q332.3 -5 332.7 -5.8Q333.1 -6.7 333.8 -7.2Q334.6 -7.7 335.5 -7.7Q336.2 -7.7 336.6 -7.4Q337.1 -7.2 337.3 -6.9Q337.6 -6.6 337.8 -6.3H337.8V-7.5H339V0.2Q339 1.2 338.6 1.8Q338.1 2.4 337.4 2.7Q336.6 3 335.7 3ZM335.7 -1.1Q336.4 -1.1 336.9 -1.5Q337.3 -1.8 337.6 -2.4Q337.8 -3 337.8 -3.8Q337.8 -4.6 337.6 -5.3Q337.3 -5.9 336.9 -6.2Q336.4 -6.6 335.7 -6.6Q335 -6.6 334.5 -6.2Q334 -5.9 333.8 -5.2Q333.5 -4.6 333.5 -3.8Q333.5 -3 333.8 -2.4Q334 -1.8 334.5 -1.5Q335 -1.1 335.7 -1.1ZM347.1 0.2Q346.4 0.2 345.8 -0.1Q345.2 -0.4 344.8 -0.9Q344.5 -1.4 344.5 -2.2Q344.5 -2.8 344.8 -3.2Q345 -3.6 345.4 -3.8Q345.9 -4.1 346.4 -4.2Q346.9 -4.3 347.4 -4.4Q348.1 -4.5 348.6 -4.5Q349 -4.6 349.2 -4.7Q349.4 -4.8 349.4 -5.1V-5.1Q349.4 -5.6 349.2 -5.9Q349 -6.2 348.7 -6.4Q348.3 -6.6 347.8 -6.6Q347.2 -6.6 346.9 -6.4Q346.5 -6.2 346.2 -6Q346 -5.7 345.9 -5.4L344.7 -5.7Q344.9 -6.4 345.4 -6.8Q345.9 -7.3 346.5 -7.5Q347.1 -7.7 347.8 -7.7Q348.2 -7.7 348.7 -7.5Q349.2 -7.4 349.6 -7.2Q350 -6.9 350.3 -6.4Q350.6 -5.8 350.6 -5V0H349.4V-1H349.3Q349.2 -0.8 348.9 -0.5Q348.6 -0.2 348.2 -0Q347.7 0.2 347.1 0.2ZM347.3 -0.9Q348 -0.9 348.4 -1.2Q348.9 -1.4 349.1 -1.9Q349.4 -2.3 349.4 -2.8V-3.8Q349.3 -3.7 349.1 -3.6Q348.8 -3.6 348.5 -3.5Q348.2 -3.5 347.9 -3.4Q347.6 -3.4 347.4 -3.3Q347 -3.3 346.6 -3.2Q346.2 -3 346 -2.8Q345.7 -2.5 345.7 -2.1Q345.7 -1.7 345.9 -1.4Q346.1 -1.2 346.5 -1Q346.8 -0.9 347.3 -0.9ZM355.7 0.2Q354.7 0.2 353.9 -0.3Q353.2 -0.8 352.7 -1.7Q352.3 -2.6 352.3 -3.7Q352.3 -4.9 352.7 -5.8Q353.2 -6.7 353.9 -7.2Q354.7 -7.7 355.7 -7.7Q356.3 -7.7 356.8 -7.5Q357.3 -7.4 357.7 -7.1Q358.1 -6.8 358.4 -6.4Q358.7 -6 358.8 -5.5L357.6 -5.2Q357.6 -5.5 357.4 -5.7Q357.2 -6 357 -6.2Q356.7 -6.4 356.4 -6.5Q356.1 -6.6 355.7 -6.6Q355 -6.6 354.5 -6.2Q354 -5.8 353.8 -5.2Q353.5 -4.5 353.5 -3.7Q353.5 -3 353.8 -2.3Q354 -1.7 354.5 -1.3Q355 -0.9 355.7 -0.9Q356.1 -0.9 356.4 -1Q356.8 -1.1 357 -1.3Q357.2 -1.5 357.4 -1.8Q357.6 -2 357.7 -2.3L358.8 -2.1Q358.7 -1.6 358.4 -1.2Q358.1 -0.7 357.7 -0.4Q357.3 -0.2 356.8 0Q356.3 0.2 355.7 0.2ZM360.5 0V-7.5H361.7V-6.4H361.7Q361.9 -7 362.5 -7.3Q363 -7.7 363.7 -7.7Q363.8 -7.7 364 -7.6Q364.2 -7.6 364.3 -7.6V-6.4Q364.2 -6.4 364 -6.5Q363.8 -6.5 363.5 -6.5Q363 -6.5 362.6 -6.3Q362.2 -6 362 -5.6Q361.7 -5.2 361.7 -4.7V0ZM368.7 0.2Q367.7 0.2 366.9 -0.3Q366.1 -0.8 365.7 -1.7Q365.2 -2.6 365.2 -3.7Q365.2 -4.9 365.7 -5.8Q366.1 -6.7 366.9 -7.2Q367.7 -7.7 368.7 -7.7Q369.7 -7.7 370.5 -7.2Q371.3 -6.7 371.7 -5.8Q372.1 -4.9 372.1 -3.7Q372.1 -2.6 371.7 -1.7Q371.3 -0.8 370.5 -0.3Q369.7 0.2 368.7 0.2ZM368.7 -0.9Q369.4 -0.9 369.9 -1.3Q370.4 -1.7 370.7 -2.3Q370.9 -3 370.9 -3.7Q370.9 -4.5 370.7 -5.2Q370.4 -5.8 369.9 -6.2Q369.4 -6.6 368.7 -6.6Q367.9 -6.6 367.4 -6.2Q367 -5.8 366.7 -5.2Q366.5 -4.5 366.5 -3.7Q366.5 -3 366.7 -2.3Q367 -1.7 367.4 -1.3Q367.9 -0.9 368.7 -0.9ZM376.4 0.2Q375.6 0.2 375 -0.1Q374.4 -0.3 374 -0.8Q373.6 -1.2 373.5 -1.9L374.7 -2.1Q374.8 -1.5 375.2 -1.2Q375.7 -0.9 376.4 -0.9Q377.2 -0.9 377.7 -1.2Q378.1 -1.6 378.1 -2Q378.1 -2.4 377.8 -2.7Q377.6 -3 377 -3.1L375.8 -3.4Q374.7 -3.6 374.2 -4.1Q373.7 -4.7 373.7 -5.5Q373.7 -6.1 374.1 -6.6Q374.4 -7.1 375.1 -7.4Q375.7 -7.7 376.5 -7.7Q377.3 -7.7 377.8 -7.4Q378.4 -7.2 378.7 -6.7Q379.1 -6.3 379.2 -5.7L378.1 -5.5Q378 -5.9 377.6 -6.3Q377.2 -6.6 376.5 -6.6Q375.8 -6.6 375.4 -6.3Q374.9 -6 374.9 -5.5Q374.9 -5.1 375.2 -4.8Q375.6 -4.6 376.2 -4.4L377.3 -4.2Q378.4 -3.9 378.9 -3.4Q379.4 -2.9 379.4 -2.1Q379.4 -1.4 379 -0.9Q378.6 -0.4 378 -0.1Q377.3 0.2 376.4 0.2ZM383.6 0.2Q382.9 0.2 382.2 -0.1Q381.6 -0.3 381.2 -0.8Q380.8 -1.2 380.7 -1.9L381.9 -2.1Q382 -1.5 382.5 -1.2Q382.9 -0.9 383.6 -0.9Q384.4 -0.9 384.9 -1.2Q385.3 -1.6 385.3 -2Q385.3 -2.4 385.1 -2.7Q384.8 -3 384.2 -3.1L383 -3.4Q382 -3.6 381.4 -4.1Q380.9 -4.7 380.9 -5.5Q380.9 -6.1 381.3 -6.6Q381.7 -7.1 382.3 -7.4Q382.9 -7.7 383.7 -7.7Q384.5 -7.7 385.1 -7.4Q385.6 -7.2 386 -6.7Q386.3 -6.3 386.4 -5.7L385.3 -5.5Q385.2 -5.9 384.8 -6.3Q384.5 -6.6 383.7 -6.6Q383 -6.6 382.6 -6.3Q382.2 -6 382.2 -5.5Q382.2 -5.1 382.5 -4.8Q382.8 -4.6 383.4 -4.4L384.6 -4.2Q385.6 -3.9 386.1 -3.4Q386.6 -2.9 386.6 -2.1Q386.6 -1.4 386.2 -0.9Q385.8 -0.4 385.2 -0.1Q384.5 0.2 383.6 0.2ZM395.2 0.2Q394.2 0.2 393.4 -0.3Q392.6 -0.8 392.2 -1.7Q391.8 -2.6 391.8 -3.7Q391.8 -4.9 392.2 -5.8Q392.6 -6.7 393.4 -7.2Q394.2 -7.7 395.2 -7.7Q395.8 -7.7 396.3 -7.5Q396.8 -7.4 397.2 -7.1Q397.6 -6.8 397.9 -6.4Q398.2 -6 398.3 -5.5L397.1 -5.2Q397 -5.5 396.9 -5.7Q396.7 -6 396.5 -6.2Q396.2 -6.4 395.9 -6.5Q395.6 -6.6 395.2 -6.6Q394.5 -6.6 394 -6.2Q393.5 -5.8 393.2 -5.2Q393 -4.5 393 -3.7Q393 -3 393.2 -2.3Q393.5 -1.7 394 -1.3Q394.5 -0.9 395.2 -0.9Q395.6 -0.9 395.9 -1Q396.2 -1.1 396.5 -1.3Q396.7 -1.5 396.9 -1.8Q397.1 -2 397.1 -2.3L398.3 -2.1Q398.2 -1.6 397.9 -1.2Q397.6 -0.7 397.2 -0.4Q396.8 -0.2 396.3 0Q395.8 0.2 395.2 0.2ZM401.2 -10.2V0H400V-10.2ZM406.3 0.2Q405.3 0.2 404.5 -0.3Q403.8 -0.8 403.3 -1.7Q402.9 -2.6 402.9 -3.7Q402.9 -4.9 403.3 -5.8Q403.8 -6.7 404.5 -7.2Q405.3 -7.7 406.3 -7.7Q407.4 -7.7 408.2 -7.2Q408.9 -6.7 409.4 -5.8Q409.8 -4.9 409.8 -3.7Q409.8 -2.6 409.4 -1.7Q408.9 -0.8 408.2 -0.3Q407.4 0.2 406.3 0.2ZM406.3 -0.9Q407.1 -0.9 407.6 -1.3Q408.1 -1.7 408.3 -2.3Q408.6 -3 408.6 -3.7Q408.6 -4.5 408.3 -5.2Q408.1 -5.8 407.6 -6.2Q407.1 -6.6 406.3 -6.6Q405.6 -6.6 405.1 -6.2Q404.6 -5.8 404.4 -5.2Q404.1 -4.5 404.1 -3.7Q404.1 -3 404.4 -2.3Q404.6 -1.7 405.1 -1.3Q405.6 -0.9 406.3 -0.9ZM414.1 0.1Q413.3 0.1 412.7 -0.2Q412.2 -0.5 411.8 -1.2Q411.5 -1.8 411.5 -2.8V-7.5H412.7V-2.9Q412.7 -2 413.2 -1.5Q413.6 -1 414.4 -1Q415 -1 415.4 -1.2Q415.8 -1.5 416.1 -1.9Q416.3 -2.4 416.3 -3V-7.5H417.6V0H416.4V-1.8H416.6Q416.2 -0.8 415.6 -0.3Q414.9 0.1 414.1 0.1ZM422.5 0.2Q421.5 0.2 420.8 -0.3Q420.1 -0.8 419.7 -1.7Q419.3 -2.6 419.3 -3.8Q419.3 -4.9 419.7 -5.8Q420.1 -6.7 420.8 -7.2Q421.5 -7.7 422.5 -7.7Q423.2 -7.7 423.6 -7.4Q424 -7.2 424.3 -6.9Q424.6 -6.6 424.7 -6.4H424.8V-10.2H426V0H424.8V-1.2H424.7Q424.6 -0.9 424.3 -0.6Q424 -0.3 423.6 -0.1Q423.2 0.2 422.5 0.2ZM422.7 -0.9Q423.3 -0.9 423.8 -1.3Q424.3 -1.6 424.6 -2.3Q424.8 -2.9 424.8 -3.8Q424.8 -4.6 424.6 -5.2Q424.3 -5.9 423.8 -6.2Q423.4 -6.6 422.7 -6.6Q422 -6.6 421.5 -6.2Q421 -5.8 420.7 -5.2Q420.5 -4.6 420.5 -3.8Q420.5 -3 420.7 -2.3Q421 -1.7 421.5 -1.3Q422 -0.9 422.7 -0.9ZM427.8 2.3 428.4 -1.4H429.8L428.7 2.3ZM435.7 0V-7.5H436.9V0ZM436.3 -8.8Q436 -8.8 435.7 -9.1Q435.5 -9.3 435.5 -9.6Q435.5 -10 435.7 -10.2Q436 -10.5 436.3 -10.5Q436.7 -10.5 436.9 -10.2Q437.2 -10 437.2 -9.6Q437.2 -9.3 436.9 -9.1Q436.7 -8.8 436.3 -8.8ZM441.9 0.2Q440.9 0.2 440.2 -0.3Q439.5 -0.8 439 -1.7Q438.6 -2.6 438.6 -3.8Q438.6 -4.9 439 -5.8Q439.5 -6.7 440.2 -7.2Q440.9 -7.7 441.9 -7.7Q442.5 -7.7 443 -7.4Q443.4 -7.2 443.7 -6.9Q443.9 -6.6 444.1 -6.4H444.2V-10.2H445.4V0H444.2V-1.2H444.1Q443.9 -0.9 443.7 -0.6Q443.4 -0.3 443 -0.1Q442.5 0.2 441.9 0.2ZM442 -0.9Q442.7 -0.9 443.2 -1.3Q443.7 -1.6 443.9 -2.3Q444.2 -2.9 444.2 -3.8Q444.2 -4.6 443.9 -5.2Q443.7 -5.9 443.2 -6.2Q442.7 -6.6 442 -6.6Q441.3 -6.6 440.9 -6.2Q440.4 -5.8 440.1 -5.2Q439.9 -4.6 439.9 -3.8Q439.9 -3 440.1 -2.3Q440.4 -1.7 440.9 -1.3Q441.3 -0.9 442 -0.9ZM450.6 0.2Q449.5 0.2 448.7 -0.3Q447.9 -0.8 447.5 -1.7Q447.1 -2.6 447.1 -3.7Q447.1 -4.9 447.5 -5.8Q447.9 -6.7 448.7 -7.2Q449.4 -7.7 450.5 -7.7Q451.1 -7.7 451.7 -7.4Q452.3 -7.2 452.8 -6.8Q453.2 -6.3 453.5 -5.6Q453.8 -4.9 453.8 -3.8V-3.4H447.9V-4.4H453.1L452.6 -4Q452.6 -4.8 452.3 -5.4Q452.1 -5.9 451.6 -6.3Q451.2 -6.6 450.5 -6.6Q449.8 -6.6 449.3 -6.2Q448.8 -5.9 448.6 -5.4Q448.3 -4.8 448.3 -4.2V-3.5Q448.3 -2.7 448.6 -2.1Q448.9 -1.5 449.4 -1.2Q449.9 -0.9 450.6 -0.9Q451.1 -0.9 451.4 -1.1Q451.8 -1.2 452.1 -1.5Q452.3 -1.7 452.5 -2.1L453.7 -1.9Q453.5 -1.3 453.1 -0.8Q452.6 -0.3 452 -0.1Q451.4 0.2 450.6 0.2ZM456.7 -4.5V0H455.5V-7.5H456.6L456.6 -5.7H456.4Q456.8 -6.8 457.4 -7.2Q458.1 -7.7 458.9 -7.7Q459.7 -7.7 460.3 -7.3Q460.9 -7 461.2 -6.4Q461.5 -5.7 461.5 -4.8V0H460.3V-4.7Q460.3 -5.6 459.9 -6.1Q459.4 -6.6 458.6 -6.6Q458 -6.6 457.6 -6.3Q457.2 -6.1 456.9 -5.6Q456.7 -5.2 456.7 -4.5ZM466.6 -7.5V-6.5H462.7V-7.5ZM463.9 -9.4H465.1V-1.9Q465.1 -1.4 465.3 -1.2Q465.5 -1 466 -1Q466.1 -1 466.3 -1Q466.5 -1 466.6 -1.1L466.8 -0Q466.6 0 466.4 0Q466.1 0.1 465.9 0.1Q464.9 0.1 464.4 -0.4Q463.9 -0.9 463.9 -1.8ZM468.1 0V-7.5H469.3V0ZM468.7 -8.8Q468.4 -8.8 468.1 -9.1Q467.9 -9.3 467.9 -9.6Q467.9 -10 468.1 -10.2Q468.4 -10.5 468.7 -10.5Q469.1 -10.5 469.3 -10.2Q469.6 -10 469.6 -9.6Q469.6 -9.3 469.3 -9.1Q469.1 -8.8 468.7 -8.8ZM474.4 -7.5V-6.5H470.5V-7.5ZM471.7 -9.4H472.9V-1.9Q472.9 -1.4 473.1 -1.2Q473.3 -1 473.8 -1Q473.9 -1 474.1 -1Q474.3 -1 474.4 -1.1L474.6 -0Q474.4 0 474.2 0Q473.9 0.1 473.7 0.1Q472.7 0.1 472.2 -0.4Q471.7 -0.9 471.7 -1.8ZM475.9 2.8 476.1 1.7 476.4 1.8Q476.7 1.8 477 1.8Q477.3 1.7 477.5 1.5Q477.7 1.2 477.9 0.7L478.1 0L475.2 -7.5H476.6L478.2 -3.1Q478.4 -2.4 478.6 -1.8Q478.8 -1.1 479 -0.5H478.6Q478.7 -1.1 478.9 -1.8Q479.1 -2.4 479.3 -3.1L481 -7.5H482.3L478.9 1.2Q478.7 1.8 478.4 2.1Q478.1 2.5 477.7 2.7Q477.2 2.9 476.7 2.9Q476.4 2.9 476.2 2.9Q476 2.8 475.9 2.8ZM483.4 2.3 484 -1.4H485.4L484.3 2.3ZM495.6 0.1Q494.3 0.1 493.3 -0.5Q492.2 -1.1 491.7 -2.3Q491.1 -3.5 491.1 -5.1Q491.1 -6.7 491.7 -7.9Q492.2 -9 493.3 -9.7Q494.3 -10.3 495.6 -10.3Q496.4 -10.3 497.1 -10.1Q497.8 -9.9 498.3 -9.4Q498.9 -9 499.3 -8.4Q499.6 -7.8 499.8 -7H498.5Q498.4 -7.5 498.1 -7.9Q497.8 -8.3 497.4 -8.6Q497.1 -8.9 496.6 -9Q496.1 -9.1 495.6 -9.1Q494.7 -9.1 493.9 -8.7Q493.2 -8.2 492.8 -7.3Q492.3 -6.4 492.3 -5.1Q492.3 -3.8 492.8 -2.9Q493.2 -2 493.9 -1.5Q494.7 -1 495.6 -1Q496.1 -1 496.6 -1.2Q497.1 -1.3 497.4 -1.6Q497.8 -1.9 498.1 -2.3Q498.4 -2.7 498.5 -3.2H499.8Q499.6 -2.4 499.3 -1.8Q498.9 -1.2 498.3 -0.8Q497.8 -0.3 497.1 -0.1Q496.4 0.1 495.6 0.1ZM502.9 -10.2V0H501.7V-10.2ZM508.8 -10.7 505.5 1.5H504.4L507.7 -10.7ZM514.4 0.1Q513.1 0.1 512.1 -0.5Q511 -1.1 510.4 -2.3Q509.9 -3.5 509.9 -5.1Q509.9 -6.7 510.4 -7.9Q511 -9 512.1 -9.7Q513.1 -10.3 514.4 -10.3Q515.2 -10.3 515.9 -10.1Q516.6 -9.9 517.1 -9.4Q517.7 -9 518 -8.4Q518.4 -7.8 518.5 -7H517.2Q517.1 -7.5 516.9 -7.9Q516.6 -8.3 516.2 -8.6Q515.8 -8.9 515.4 -9Q514.9 -9.1 514.4 -9.1Q513.5 -9.1 512.7 -8.7Q512 -8.2 511.5 -7.3Q511.1 -6.4 511.1 -5.1Q511.1 -3.8 511.5 -2.9Q512 -2 512.7 -1.5Q513.5 -1 514.4 -1Q514.9 -1 515.4 -1.2Q515.8 -1.3 516.2 -1.6Q516.6 -1.9 516.9 -2.3Q517.1 -2.7 517.3 -3.2H518.5Q518.4 -2.4 518 -1.8Q517.7 -1.2 517.1 -0.8Q516.6 -0.3 515.9 -0.1Q515.2 0.1 514.4 0.1ZM523.6 0H521.2V-1.1H523.5Q524.8 -1.1 525.6 -1.6Q526.4 -2.1 526.8 -3Q527.2 -3.9 527.2 -5.1Q527.2 -6.3 526.8 -7.2Q526.4 -8.1 525.6 -8.6Q524.8 -9.1 523.7 -9.1H521.1V-10.2H523.7Q525.2 -10.2 526.3 -9.6Q527.4 -9 527.9 -7.8Q528.5 -6.7 528.5 -5.1Q528.5 -3.5 527.9 -2.4Q527.3 -1.2 526.3 -0.6Q525.2 0 523.6 0ZM521.7 -10.2V0H520.4V-10.2ZM530 2.3 530.6 -1.4H532L531 2.3Z" fill="#4B4F4D" opacity="1" /><path transform="translate(24.0 101.0)" d="M2.5 -10.2V0H1.2V-10.2ZM6.8 0.2Q6.1 0.2 5.5 -0.1Q4.9 -0.4 4.6 -0.9Q4.3 -1.4 4.3 -2.2Q4.3 -2.8 4.5 -3.2Q4.8 -3.6 5.2 -3.8Q5.6 -4.1 6.1 -4.2Q6.7 -4.3 7.2 -4.4Q7.9 -4.5 8.3 -4.5Q8.7 -4.6 8.9 -4.7Q9.1 -4.8 9.1 -5.1V-5.1Q9.1 -5.6 9 -5.9Q8.8 -6.2 8.4 -6.4Q8.1 -6.6 7.5 -6.6Q7 -6.6 6.6 -6.4Q6.2 -6.2 6 -6Q5.7 -5.7 5.6 -5.4L4.5 -5.7Q4.7 -6.4 5.2 -6.8Q5.6 -7.3 6.2 -7.5Q6.9 -7.7 7.5 -7.7Q7.9 -7.7 8.4 -7.5Q8.9 -7.4 9.4 -7.2Q9.8 -6.9 10.1 -6.4Q10.3 -5.8 10.3 -5V0H9.1V-1H9.1Q8.9 -0.8 8.7 -0.5Q8.4 -0.2 7.9 -0Q7.5 0.2 6.8 0.2ZM7 -0.9Q7.7 -0.9 8.2 -1.2Q8.7 -1.4 8.9 -1.9Q9.1 -2.3 9.1 -2.8V-3.8Q9.1 -3.7 8.8 -3.6Q8.6 -3.6 8.3 -3.5Q8 -3.5 7.7 -3.4Q7.4 -3.4 7.1 -3.3Q6.7 -3.3 6.3 -3.2Q5.9 -3 5.7 -2.8Q5.5 -2.5 5.5 -2.1Q5.5 -1.7 5.7 -1.4Q5.9 -1.2 6.2 -1Q6.6 -0.9 7 -0.9ZM16.7 0.1Q15.4 0.1 14.4 -0.5Q13.3 -1.1 12.7 -2.3Q12.2 -3.5 12.2 -5.1Q12.2 -6.7 12.7 -7.9Q13.3 -9 14.4 -9.7Q15.4 -10.3 16.7 -10.3Q17.5 -10.3 18.2 -10.1Q18.9 -9.9 19.4 -9.4Q20 -9 20.3 -8.4Q20.7 -7.8 20.8 -7H19.6Q19.4 -7.5 19.2 -7.9Q18.9 -8.3 18.5 -8.6Q18.2 -8.9 17.7 -9Q17.2 -9.1 16.7 -9.1Q15.8 -9.1 15 -8.7Q14.3 -8.2 13.8 -7.3Q13.4 -6.4 13.4 -5.1Q13.4 -3.8 13.8 -2.9Q14.3 -2 15 -1.5Q15.8 -1 16.7 -1Q17.2 -1 17.7 -1.2Q18.2 -1.3 18.5 -1.6Q18.9 -1.9 19.2 -2.3Q19.4 -2.7 19.6 -3.2H20.8Q20.7 -2.4 20.4 -1.8Q20 -1.2 19.4 -0.8Q18.9 -0.3 18.2 -0.1Q17.5 0.1 16.7 0.1ZM22.3 2.3 22.9 -1.4H24.3L23.3 2.3ZM33.1 0.2Q32.2 0.2 31.4 -0.3Q30.7 -0.8 30.3 -1.7Q29.9 -2.6 29.9 -3.8Q29.9 -4.9 30.3 -5.8Q30.7 -6.7 31.4 -7.2Q32.2 -7.7 33.1 -7.7Q33.8 -7.7 34.2 -7.4Q34.7 -7.2 34.9 -6.9Q35.2 -6.6 35.3 -6.4H35.4V-10.2H36.6V0H35.5V-1.2H35.3Q35.2 -0.9 34.9 -0.6Q34.7 -0.3 34.2 -0.1Q33.8 0.2 33.1 0.2ZM33.3 -0.9Q34 -0.9 34.5 -1.3Q34.9 -1.6 35.2 -2.3Q35.5 -2.9 35.5 -3.8Q35.5 -4.6 35.2 -5.2Q35 -5.9 34.5 -6.2Q34 -6.6 33.3 -6.6Q32.6 -6.6 32.1 -6.2Q31.6 -5.8 31.4 -5.2Q31.1 -4.6 31.1 -3.8Q31.1 -3 31.4 -2.3Q31.6 -1.7 32.1 -1.3Q32.6 -0.9 33.3 -0.9ZM40.9 0.2Q40.1 0.2 39.5 -0.1Q39 -0.4 38.6 -0.9Q38.3 -1.4 38.3 -2.2Q38.3 -2.8 38.5 -3.2Q38.8 -3.6 39.2 -3.8Q39.6 -4.1 40.2 -4.2Q40.7 -4.3 41.2 -4.4Q41.9 -4.5 42.3 -4.5Q42.7 -4.6 42.9 -4.7Q43.1 -4.8 43.1 -5.1V-5.1Q43.1 -5.6 43 -5.9Q42.8 -6.2 42.4 -6.4Q42.1 -6.6 41.5 -6.6Q41 -6.6 40.6 -6.4Q40.2 -6.2 40 -6Q39.8 -5.7 39.7 -5.4L38.5 -5.7Q38.7 -6.4 39.2 -6.8Q39.6 -7.3 40.3 -7.5Q40.9 -7.7 41.5 -7.7Q42 -7.7 42.5 -7.5Q42.9 -7.4 43.4 -7.2Q43.8 -6.9 44.1 -6.4Q44.4 -5.8 44.4 -5V0H43.2V-1H43.1Q43 -0.8 42.7 -0.5Q42.4 -0.2 42 -0Q41.5 0.2 40.9 0.2ZM41 -0.9Q41.7 -0.9 42.2 -1.2Q42.7 -1.4 42.9 -1.9Q43.1 -2.3 43.1 -2.8V-3.8Q43.1 -3.7 42.8 -3.6Q42.6 -3.6 42.3 -3.5Q42 -3.5 41.7 -3.4Q41.4 -3.4 41.2 -3.3Q40.7 -3.3 40.3 -3.2Q40 -3 39.7 -2.8Q39.5 -2.5 39.5 -2.1Q39.5 -1.7 39.7 -1.4Q39.9 -1.2 40.2 -1Q40.6 -0.9 41 -0.9ZM49.5 -7.5V-6.5H45.5V-7.5ZM46.7 -9.4H47.9V-1.9Q47.9 -1.4 48.1 -1.2Q48.3 -1 48.8 -1Q48.9 -1 49.1 -1Q49.3 -1 49.4 -1.1L49.6 -0Q49.4 0 49.2 0Q49 0.1 48.7 0.1Q47.8 0.1 47.2 -0.4Q46.7 -0.9 46.7 -1.8ZM53.1 0.2Q52.4 0.2 51.8 -0.1Q51.2 -0.4 50.9 -0.9Q50.5 -1.4 50.5 -2.2Q50.5 -2.8 50.8 -3.2Q51 -3.6 51.5 -3.8Q51.9 -4.1 52.4 -4.2Q52.9 -4.3 53.5 -4.4Q54.2 -4.5 54.6 -4.5Q55 -4.6 55.2 -4.7Q55.4 -4.8 55.4 -5.1V-5.1Q55.4 -5.6 55.2 -5.9Q55 -6.2 54.7 -6.4Q54.3 -6.6 53.8 -6.6Q53.3 -6.6 52.9 -6.4Q52.5 -6.2 52.3 -6Q52 -5.7 51.9 -5.4L50.7 -5.7Q51 -6.4 51.4 -6.8Q51.9 -7.3 52.5 -7.5Q53.1 -7.7 53.8 -7.7Q54.2 -7.7 54.7 -7.5Q55.2 -7.4 55.6 -7.2Q56.1 -6.9 56.3 -6.4Q56.6 -5.8 56.6 -5V0H55.4V-1H55.4Q55.2 -0.8 54.9 -0.5Q54.7 -0.2 54.2 -0Q53.8 0.2 53.1 0.2ZM53.3 -0.9Q54 -0.9 54.5 -1.2Q54.9 -1.4 55.2 -1.9Q55.4 -2.3 55.4 -2.8V-3.8Q55.3 -3.7 55.1 -3.6Q54.9 -3.6 54.5 -3.5Q54.2 -3.5 53.9 -3.4Q53.6 -3.4 53.4 -3.3Q53 -3.3 52.6 -3.2Q52.2 -3 52 -2.8Q51.7 -2.5 51.7 -2.1Q51.7 -1.7 51.9 -1.4Q52.2 -1.2 52.5 -1Q52.8 -0.9 53.3 -0.9ZM64.7 0.2Q64 0.2 63.4 -0.1Q62.8 -0.4 62.4 -0.9Q62.1 -1.4 62.1 -2.2Q62.1 -2.8 62.3 -3.2Q62.6 -3.6 63 -3.8Q63.5 -4.1 64 -4.2Q64.5 -4.3 65 -4.4Q65.7 -4.5 66.1 -4.5Q66.6 -4.6 66.8 -4.7Q67 -4.8 67 -5.1V-5.1Q67 -5.6 66.8 -5.9Q66.6 -6.2 66.3 -6.4Q65.9 -6.6 65.4 -6.6Q64.8 -6.6 64.4 -6.4Q64.1 -6.2 63.8 -6Q63.6 -5.7 63.5 -5.4L62.3 -5.7Q62.5 -6.4 63 -6.8Q63.5 -7.3 64.1 -7.5Q64.7 -7.7 65.3 -7.7Q65.8 -7.7 66.3 -7.5Q66.8 -7.4 67.2 -7.2Q67.6 -6.9 67.9 -6.4Q68.2 -5.8 68.2 -5V0H67V-1H66.9Q66.8 -0.8 66.5 -0.5Q66.2 -0.2 65.8 -0Q65.3 0.2 64.7 0.2ZM64.9 -0.9Q65.6 -0.9 66 -1.2Q66.5 -1.4 66.7 -1.9Q67 -2.3 67 -2.8V-3.8Q66.9 -3.7 66.7 -3.6Q66.4 -3.6 66.1 -3.5Q65.8 -3.5 65.5 -3.4Q65.2 -3.4 65 -3.3Q64.5 -3.3 64.2 -3.2Q63.8 -3 63.5 -2.8Q63.3 -2.5 63.3 -2.1Q63.3 -1.7 63.5 -1.4Q63.7 -1.2 64.1 -1Q64.4 -0.9 64.9 -0.9ZM71.5 -4.5V0H70.2V-7.5H71.4L71.4 -5.7H71.2Q71.6 -6.8 72.2 -7.2Q72.9 -7.7 73.7 -7.7Q74.5 -7.7 75.1 -7.3Q75.7 -7 76 -6.4Q76.3 -5.7 76.3 -4.8V0H75.1V-4.7Q75.1 -5.6 74.6 -6.1Q74.2 -6.6 73.4 -6.6Q72.8 -6.6 72.4 -6.3Q72 -6.1 71.7 -5.6Q71.5 -5.2 71.5 -4.5ZM81.2 0.2Q80.3 0.2 79.5 -0.3Q78.8 -0.8 78.4 -1.7Q78 -2.6 78 -3.8Q78 -4.9 78.4 -5.8Q78.8 -6.7 79.6 -7.2Q80.3 -7.7 81.2 -7.7Q81.9 -7.7 82.3 -7.4Q82.8 -7.2 83 -6.9Q83.3 -6.6 83.5 -6.4H83.5V-10.2H84.7V0H83.6V-1.2H83.5Q83.3 -0.9 83 -0.6Q82.8 -0.3 82.3 -0.1Q81.9 0.2 81.2 0.2ZM81.4 -0.9Q82.1 -0.9 82.6 -1.3Q83.1 -1.6 83.3 -2.3Q83.6 -2.9 83.6 -3.8Q83.6 -4.6 83.3 -5.2Q83.1 -5.9 82.6 -6.2Q82.1 -6.6 81.4 -6.6Q80.7 -6.6 80.2 -6.2Q79.7 -5.8 79.5 -5.2Q79.2 -4.6 79.2 -3.8Q79.2 -3 79.5 -2.3Q79.7 -1.7 80.2 -1.3Q80.7 -0.9 81.4 -0.9ZM92.1 -10.2V0H90.8V-10.2ZM97.4 0.2Q96.4 0.2 95.6 -0.3Q94.8 -0.8 94.4 -1.7Q93.9 -2.6 93.9 -3.7Q93.9 -4.9 94.4 -5.8Q94.8 -6.7 95.6 -7.2Q96.4 -7.7 97.4 -7.7Q98.4 -7.7 99.2 -7.2Q100 -6.7 100.4 -5.8Q100.8 -4.9 100.8 -3.7Q100.8 -2.6 100.4 -1.7Q100 -0.8 99.2 -0.3Q98.4 0.2 97.4 0.2ZM97.4 -0.9Q98.1 -0.9 98.6 -1.3Q99.1 -1.7 99.4 -2.3Q99.6 -3 99.6 -3.7Q99.6 -4.5 99.4 -5.2Q99.1 -5.8 98.6 -6.2Q98.1 -6.6 97.4 -6.6Q96.6 -6.6 96.1 -6.2Q95.7 -5.8 95.4 -5.2Q95.2 -4.5 95.2 -3.7Q95.2 -3 95.4 -2.3Q95.7 -1.7 96.1 -1.3Q96.6 -0.9 97.4 -0.9ZM102.1 -9.1V-10.2H109.8V-9.1H106.6V0H105.3V-9.1ZM118.8 -7.5V-6.5H114.4V-7.5ZM115.9 0V-8.6Q115.9 -9.3 116.2 -9.7Q116.5 -10.1 116.9 -10.3Q117.4 -10.6 118 -10.6Q118.4 -10.6 118.6 -10.5Q118.9 -10.4 119 -10.4L118.8 -9.4Q118.7 -9.4 118.5 -9.4Q118.3 -9.4 118.1 -9.4Q117.6 -9.4 117.3 -9.2Q117.1 -8.9 117.1 -8.4V0ZM120.3 0V-7.5H121.5V0ZM120.9 -8.8Q120.6 -8.8 120.3 -9.1Q120.1 -9.3 120.1 -9.6Q120.1 -10 120.3 -10.2Q120.6 -10.5 120.9 -10.5Q121.2 -10.5 121.5 -10.2Q121.7 -10 121.7 -9.6Q121.7 -9.3 121.5 -9.1Q121.2 -8.8 120.9 -8.8ZM123.6 0V-7.5H124.7V-6.4H124.8Q125 -7 125.5 -7.3Q126.1 -7.7 126.7 -7.7Q126.9 -7.7 127.1 -7.6Q127.2 -7.6 127.3 -7.6V-6.4Q127.3 -6.4 127.1 -6.5Q126.8 -6.5 126.6 -6.5Q126.1 -6.5 125.7 -6.3Q125.3 -6 125 -5.6Q124.8 -5.2 124.8 -4.7V0ZM128.7 0V-7.5H129.9L129.9 -5.9H129.8Q129.9 -6.5 130.3 -6.9Q130.6 -7.3 131.1 -7.5Q131.5 -7.7 132 -7.7Q132.8 -7.7 133.4 -7.2Q133.9 -6.7 134.1 -5.9H133.9Q134 -6.4 134.4 -6.8Q134.7 -7.2 135.2 -7.5Q135.7 -7.7 136.3 -7.7Q137 -7.7 137.6 -7.4Q138.1 -7.1 138.4 -6.5Q138.8 -5.9 138.8 -5.1V0H137.5V-5Q137.5 -5.9 137.1 -6.2Q136.6 -6.6 136 -6.6Q135.5 -6.6 135.1 -6.4Q134.7 -6.1 134.5 -5.8Q134.3 -5.4 134.3 -4.9V0H133.1V-5.2Q133.1 -5.8 132.7 -6.2Q132.3 -6.6 131.6 -6.6Q131.2 -6.6 130.8 -6.4Q130.4 -6.2 130.1 -5.7Q129.9 -5.3 129.9 -4.7V0ZM142.5 0 140.2 -7.5H141.5L142.4 -4.3Q142.6 -3.6 142.8 -2.7Q143 -1.9 143.2 -0.9H143Q143.3 -1.8 143.5 -2.7Q143.7 -3.5 143.9 -4.3L144.8 -7.5H146.1L147 -4.3Q147.2 -3.5 147.4 -2.7Q147.6 -1.9 147.8 -0.9H147.6Q147.8 -1.8 148 -2.7Q148.2 -3.5 148.4 -4.3L149.3 -7.5H150.6L148.3 0H147.1L146.1 -3.4Q146 -3.9 145.8 -4.5Q145.7 -5 145.6 -5.6Q145.4 -6.1 145.3 -6.7H145.6Q145.4 -6.1 145.3 -5.6Q145.1 -5 145 -4.5Q144.9 -3.9 144.7 -3.4L143.7 0ZM154.2 0.2Q153.5 0.2 152.9 -0.1Q152.3 -0.4 152 -0.9Q151.6 -1.4 151.6 -2.2Q151.6 -2.8 151.9 -3.2Q152.2 -3.6 152.6 -3.8Q153 -4.1 153.5 -4.2Q154.1 -4.3 154.6 -4.4Q155.3 -4.5 155.7 -4.5Q156.1 -4.6 156.3 -4.7Q156.5 -4.8 156.5 -5.1V-5.1Q156.5 -5.6 156.3 -5.9Q156.2 -6.2 155.8 -6.4Q155.4 -6.6 154.9 -6.6Q154.4 -6.6 154 -6.4Q153.6 -6.2 153.4 -6Q153.1 -5.7 153 -5.4L151.8 -5.7Q152.1 -6.4 152.6 -6.8Q153 -7.3 153.6 -7.5Q154.2 -7.7 154.9 -7.7Q155.3 -7.7 155.8 -7.5Q156.3 -7.4 156.8 -7.2Q157.2 -6.9 157.5 -6.4Q157.7 -5.8 157.7 -5V0H156.5V-1H156.5Q156.3 -0.8 156.1 -0.5Q155.8 -0.2 155.3 -0Q154.9 0.2 154.2 0.2ZM154.4 -0.9Q155.1 -0.9 155.6 -1.2Q156 -1.4 156.3 -1.9Q156.5 -2.3 156.5 -2.8V-3.8Q156.4 -3.7 156.2 -3.6Q156 -3.6 155.7 -3.5Q155.4 -3.5 155 -3.4Q154.7 -3.4 154.5 -3.3Q154.1 -3.3 153.7 -3.2Q153.3 -3 153.1 -2.8Q152.9 -2.5 152.9 -2.1Q152.9 -1.7 153.1 -1.4Q153.3 -1.2 153.6 -1Q154 -0.9 154.4 -0.9ZM159.8 0V-7.5H161V-6.4H161Q161.2 -7 161.8 -7.3Q162.3 -7.7 163 -7.7Q163.1 -7.7 163.3 -7.6Q163.5 -7.6 163.6 -7.6V-6.4Q163.5 -6.4 163.3 -6.5Q163.1 -6.5 162.8 -6.5Q162.3 -6.5 161.9 -6.3Q161.5 -6 161.2 -5.6Q161 -5.2 161 -4.7V0ZM168.1 0.2Q167 0.2 166.2 -0.3Q165.4 -0.8 165 -1.7Q164.5 -2.6 164.5 -3.7Q164.5 -4.9 164.9 -5.8Q165.4 -6.7 166.1 -7.2Q166.9 -7.7 167.9 -7.7Q168.6 -7.7 169.2 -7.4Q169.8 -7.2 170.2 -6.8Q170.7 -6.3 171 -5.6Q171.2 -4.9 171.2 -3.8V-3.4H165.3V-4.4H170.6L170 -4Q170 -4.8 169.8 -5.4Q169.5 -5.9 169.1 -6.3Q168.6 -6.6 167.9 -6.6Q167.2 -6.6 166.8 -6.2Q166.3 -5.9 166 -5.4Q165.8 -4.8 165.8 -4.2V-3.5Q165.8 -2.7 166 -2.1Q166.3 -1.5 166.8 -1.2Q167.4 -0.9 168.1 -0.9Q168.5 -0.9 168.9 -1.1Q169.3 -1.2 169.5 -1.5Q169.8 -1.7 169.9 -2.1L171.1 -1.9Q171 -1.3 170.5 -0.8Q170.1 -0.3 169.5 -0.1Q168.8 0.2 168.1 0.2ZM189.7 -4.9V-3.7H175.7V-4.9ZM196.8 0 193.9 -7.5H195.2L196.8 -3.1Q197.1 -2.4 197.3 -1.8Q197.4 -1.1 197.6 -0.5H197.2Q197.4 -1.1 197.6 -1.8Q197.8 -2.4 198 -3.1L199.6 -7.5H200.9L198.1 0ZM204.5 0.2Q203.7 0.2 203.2 -0.1Q202.6 -0.4 202.2 -0.9Q201.9 -1.4 201.9 -2.2Q201.9 -2.8 202.1 -3.2Q202.4 -3.6 202.8 -3.8Q203.2 -4.1 203.8 -4.2Q204.3 -4.3 204.8 -4.4Q205.5 -4.5 205.9 -4.5Q206.4 -4.6 206.6 -4.7Q206.8 -4.8 206.8 -5.1V-5.1Q206.8 -5.6 206.6 -5.9Q206.4 -6.2 206 -6.4Q205.7 -6.6 205.2 -6.6Q204.6 -6.6 204.2 -6.4Q203.8 -6.2 203.6 -6Q203.4 -5.7 203.3 -5.4L202.1 -5.7Q202.3 -6.4 202.8 -6.8Q203.3 -7.3 203.9 -7.5Q204.5 -7.7 205.1 -7.7Q205.6 -7.7 206.1 -7.5Q206.6 -7.4 207 -7.2Q207.4 -6.9 207.7 -6.4Q208 -5.8 208 -5V0H206.8V-1H206.7Q206.6 -0.8 206.3 -0.5Q206 -0.2 205.6 -0Q205.1 0.2 204.5 0.2ZM204.7 -0.9Q205.4 -0.9 205.8 -1.2Q206.3 -1.4 206.5 -1.9Q206.8 -2.3 206.8 -2.8V-3.8Q206.7 -3.7 206.4 -3.6Q206.2 -3.6 205.9 -3.5Q205.6 -3.5 205.3 -3.4Q205 -3.4 204.8 -3.3Q204.3 -3.3 204 -3.2Q203.6 -3 203.3 -2.8Q203.1 -2.5 203.1 -2.1Q203.1 -1.7 203.3 -1.4Q203.5 -1.2 203.9 -1Q204.2 -0.9 204.7 -0.9ZM211.3 -10.2V0H210V-10.2ZM213.3 0V-7.5H214.5V0ZM213.9 -8.8Q213.6 -8.8 213.3 -9.1Q213.1 -9.3 213.1 -9.6Q213.1 -10 213.3 -10.2Q213.6 -10.5 213.9 -10.5Q214.3 -10.5 214.5 -10.2Q214.8 -10 214.8 -9.6Q214.8 -9.3 214.5 -9.1Q214.3 -8.8 213.9 -8.8ZM219.4 0.2Q218.5 0.2 217.8 -0.3Q217 -0.8 216.6 -1.7Q216.2 -2.6 216.2 -3.8Q216.2 -4.9 216.6 -5.8Q217 -6.7 217.8 -7.2Q218.5 -7.7 219.4 -7.7Q220.1 -7.7 220.6 -7.4Q221 -7.2 221.3 -6.9Q221.5 -6.6 221.7 -6.4H221.7V-10.2H223V0H221.8V-1.2H221.7Q221.5 -0.9 221.3 -0.6Q221 -0.3 220.5 -0.1Q220.1 0.2 219.4 0.2ZM219.6 -0.9Q220.3 -0.9 220.8 -1.3Q221.3 -1.6 221.5 -2.3Q221.8 -2.9 221.8 -3.8Q221.8 -4.6 221.5 -5.2Q221.3 -5.9 220.8 -6.2Q220.3 -6.6 219.6 -6.6Q218.9 -6.6 218.4 -6.2Q218 -5.8 217.7 -5.2Q217.5 -4.6 217.5 -3.8Q217.5 -3 217.7 -2.3Q218 -1.7 218.4 -1.3Q218.9 -0.9 219.6 -0.9ZM227.2 0.2Q226.5 0.2 225.9 -0.1Q225.3 -0.4 224.9 -0.9Q224.6 -1.4 224.6 -2.2Q224.6 -2.8 224.9 -3.2Q225.1 -3.6 225.5 -3.8Q226 -4.1 226.5 -4.2Q227 -4.3 227.5 -4.4Q228.2 -4.5 228.7 -4.5Q229.1 -4.6 229.3 -4.7Q229.5 -4.8 229.5 -5.1V-5.1Q229.5 -5.6 229.3 -5.9Q229.1 -6.2 228.8 -6.4Q228.4 -6.6 227.9 -6.6Q227.3 -6.6 226.9 -6.4Q226.6 -6.2 226.3 -6Q226.1 -5.7 226 -5.4L224.8 -5.7Q225 -6.4 225.5 -6.8Q226 -7.3 226.6 -7.5Q227.2 -7.7 227.8 -7.7Q228.3 -7.7 228.8 -7.5Q229.3 -7.4 229.7 -7.2Q230.1 -6.9 230.4 -6.4Q230.7 -5.8 230.7 -5V0H229.5V-1H229.4Q229.3 -0.8 229 -0.5Q228.7 -0.2 228.3 -0Q227.8 0.2 227.2 0.2ZM227.4 -0.9Q228.1 -0.9 228.5 -1.2Q229 -1.4 229.2 -1.9Q229.5 -2.3 229.5 -2.8V-3.8Q229.4 -3.7 229.2 -3.6Q228.9 -3.6 228.6 -3.5Q228.3 -3.5 228 -3.4Q227.7 -3.4 227.5 -3.3Q227 -3.3 226.7 -3.2Q226.3 -3 226.1 -2.8Q225.8 -2.5 225.8 -2.1Q225.8 -1.7 226 -1.4Q226.2 -1.2 226.6 -1Q226.9 -0.9 227.4 -0.9ZM235.8 -7.5V-6.5H231.8V-7.5ZM233 -9.4H234.2V-1.9Q234.2 -1.4 234.4 -1.2Q234.6 -1 235.1 -1Q235.2 -1 235.4 -1Q235.6 -1 235.8 -1.1L236 -0Q235.8 0 235.5 0Q235.3 0.1 235.1 0.1Q234.1 0.1 233.6 -0.4Q233 -0.9 233 -1.8ZM240.4 0.2Q239.3 0.2 238.6 -0.3Q237.8 -0.8 237.3 -1.7Q236.9 -2.6 236.9 -3.7Q236.9 -4.9 237.3 -5.8Q237.8 -6.7 238.5 -7.2Q239.3 -7.7 240.3 -7.7Q241 -7.7 241.5 -7.4Q242.1 -7.2 242.6 -6.8Q243.1 -6.3 243.4 -5.6Q243.6 -4.9 243.6 -3.8V-3.4H237.7V-4.4H243L242.4 -4Q242.4 -4.8 242.2 -5.4Q241.9 -5.9 241.5 -6.3Q241 -6.6 240.3 -6.6Q239.6 -6.6 239.1 -6.2Q238.7 -5.9 238.4 -5.4Q238.1 -4.8 238.1 -4.2V-3.5Q238.1 -2.7 238.4 -2.1Q238.7 -1.5 239.2 -1.2Q239.8 -0.9 240.4 -0.9Q240.9 -0.9 241.3 -1.1Q241.7 -1.2 241.9 -1.5Q242.2 -1.7 242.3 -2.1L243.5 -1.9Q243.3 -1.3 242.9 -0.8Q242.5 -0.3 241.9 -0.1Q241.2 0.2 240.4 0.2ZM248.1 0.2Q247.2 0.2 246.5 -0.3Q245.7 -0.8 245.3 -1.7Q244.9 -2.6 244.9 -3.8Q244.9 -4.9 245.3 -5.8Q245.7 -6.7 246.5 -7.2Q247.2 -7.7 248.1 -7.7Q248.8 -7.7 249.3 -7.4Q249.7 -7.2 250 -6.9Q250.2 -6.6 250.4 -6.4H250.4V-10.2H251.7V0H250.5V-1.2H250.4Q250.2 -0.9 250 -0.6Q249.7 -0.3 249.3 -0.1Q248.8 0.2 248.1 0.2ZM248.3 -0.9Q249 -0.9 249.5 -1.3Q250 -1.6 250.2 -2.3Q250.5 -2.9 250.5 -3.8Q250.5 -4.6 250.2 -5.2Q250 -5.9 249.5 -6.2Q249 -6.6 248.3 -6.6Q247.6 -6.6 247.1 -6.2Q246.7 -5.8 246.4 -5.2Q246.2 -4.6 246.2 -3.8Q246.2 -3 246.4 -2.3Q246.7 -1.7 247.1 -1.3Q247.6 -0.9 248.3 -0.9ZM260.7 0.2Q259.6 0.2 258.8 -0.3Q258.1 -0.8 257.6 -1.7Q257.2 -2.6 257.2 -3.7Q257.2 -4.9 257.6 -5.8Q258.1 -6.7 258.8 -7.2Q259.6 -7.7 260.7 -7.7Q261.7 -7.7 262.5 -7.2Q263.2 -6.7 263.7 -5.8Q264.1 -4.9 264.1 -3.7Q264.1 -2.6 263.7 -1.7Q263.2 -0.8 262.5 -0.3Q261.7 0.2 260.7 0.2ZM260.7 -0.9Q261.4 -0.9 261.9 -1.3Q262.4 -1.7 262.6 -2.3Q262.9 -3 262.9 -3.7Q262.9 -4.5 262.6 -5.2Q262.4 -5.8 261.9 -6.2Q261.4 -6.6 260.7 -6.6Q259.9 -6.6 259.4 -6.2Q258.9 -5.8 258.7 -5.2Q258.4 -4.5 258.4 -3.7Q258.4 -3 258.7 -2.3Q258.9 -1.7 259.4 -1.3Q259.9 -0.9 260.7 -0.9ZM267 -4.5V0H265.8V-7.5H267L267 -5.7H266.8Q267.1 -6.8 267.8 -7.2Q268.4 -7.7 269.3 -7.7Q270 -7.7 270.6 -7.3Q271.2 -7 271.5 -6.4Q271.9 -5.7 271.9 -4.8V0H270.7V-4.7Q270.7 -5.6 270.2 -6.1Q269.7 -6.6 268.9 -6.6Q268.4 -6.6 268 -6.3Q267.5 -6.1 267.3 -5.6Q267 -5.2 267 -4.5ZM277.8 2.9V-7.5H279V-6.4H279.1Q279.2 -6.6 279.5 -6.9Q279.7 -7.2 280.2 -7.4Q280.6 -7.7 281.3 -7.7Q282.3 -7.7 283 -7.2Q283.7 -6.7 284.1 -5.8Q284.5 -4.9 284.5 -3.8Q284.5 -2.6 284.1 -1.7Q283.7 -0.8 283 -0.3Q282.3 0.2 281.3 0.2Q280.6 0.2 280.2 -0.1Q279.8 -0.3 279.5 -0.6Q279.2 -0.9 279.1 -1.2H279V2.9ZM281.1 -0.9Q281.8 -0.9 282.3 -1.3Q282.8 -1.7 283 -2.3Q283.3 -3 283.3 -3.8Q283.3 -4.6 283 -5.2Q282.8 -5.8 282.3 -6.2Q281.8 -6.6 281.1 -6.6Q280.4 -6.6 279.9 -6.2Q279.5 -5.9 279.2 -5.2Q279 -4.6 279 -3.8Q279 -2.9 279.2 -2.3Q279.5 -1.6 280 -1.3Q280.4 -0.9 281.1 -0.9ZM288.8 0.1Q288.1 0.1 287.5 -0.2Q286.9 -0.5 286.5 -1.2Q286.2 -1.8 286.2 -2.8V-7.5H287.4V-2.9Q287.4 -2 287.9 -1.5Q288.4 -1 289.2 -1Q289.7 -1 290.1 -1.2Q290.6 -1.5 290.8 -1.9Q291.1 -2.4 291.1 -3V-7.5H292.3V0H291.1V-1.8H291.3Q291 -0.8 290.3 -0.3Q289.7 0.1 288.8 0.1ZM297.9 0.2Q297.2 0.2 296.8 -0.1Q296.3 -0.3 296.1 -0.6Q295.8 -0.9 295.6 -1.2H295.5V0H294.4V-10.2H295.6V-6.4H295.6Q295.8 -6.6 296.1 -6.9Q296.3 -7.2 296.8 -7.4Q297.2 -7.7 297.9 -7.7Q298.8 -7.7 299.5 -7.2Q300.3 -6.7 300.7 -5.8Q301.1 -4.9 301.1 -3.8Q301.1 -2.6 300.7 -1.7Q300.3 -0.8 299.6 -0.3Q298.8 0.2 297.9 0.2ZM297.7 -0.9Q298.4 -0.9 298.9 -1.3Q299.4 -1.7 299.6 -2.3Q299.9 -3 299.9 -3.8Q299.9 -4.6 299.6 -5.2Q299.4 -5.8 298.9 -6.2Q298.4 -6.6 297.7 -6.6Q297 -6.6 296.5 -6.2Q296 -5.9 295.8 -5.2Q295.5 -4.6 295.5 -3.8Q295.5 -2.9 295.8 -2.3Q296 -1.6 296.5 -1.3Q297 -0.9 297.7 -0.9ZM304 -10.2V0H302.8V-10.2ZM306.1 0V-7.5H307.3V0ZM306.7 -8.8Q306.3 -8.8 306.1 -9.1Q305.8 -9.3 305.8 -9.6Q305.8 -10 306.1 -10.2Q306.3 -10.5 306.7 -10.5Q307 -10.5 307.3 -10.2Q307.5 -10 307.5 -9.6Q307.5 -9.3 307.3 -9.1Q307 -8.8 306.7 -8.8ZM312.4 0.2Q311.4 0.2 310.6 -0.3Q309.8 -0.8 309.4 -1.7Q309 -2.6 309 -3.7Q309 -4.9 309.4 -5.8Q309.8 -6.7 310.6 -7.2Q311.4 -7.7 312.4 -7.7Q313 -7.7 313.5 -7.5Q314 -7.4 314.4 -7.1Q314.8 -6.8 315.1 -6.4Q315.4 -6 315.5 -5.5L314.3 -5.2Q314.3 -5.5 314.1 -5.7Q313.9 -6 313.7 -6.2Q313.4 -6.4 313.1 -6.5Q312.8 -6.6 312.4 -6.6Q311.7 -6.6 311.2 -6.2Q310.7 -5.8 310.5 -5.2Q310.2 -4.5 310.2 -3.7Q310.2 -3 310.5 -2.3Q310.7 -1.7 311.2 -1.3Q311.7 -0.9 312.4 -0.9Q312.8 -0.9 313.1 -1Q313.4 -1.1 313.7 -1.3Q313.9 -1.5 314.1 -1.8Q314.3 -2 314.4 -2.3L315.5 -2.1Q315.4 -1.6 315.1 -1.2Q314.8 -0.7 314.4 -0.4Q314 -0.2 313.5 0Q313 0.2 312.4 0.2ZM322.3 -10.2V0H321V-10.2ZM326.5 0.2Q325.7 0.2 325.2 -0.1Q324.6 -0.4 324.2 -0.9Q323.9 -1.4 323.9 -2.2Q323.9 -2.8 324.1 -3.2Q324.4 -3.6 324.8 -3.8Q325.3 -4.1 325.8 -4.2Q326.3 -4.3 326.8 -4.4Q327.5 -4.5 327.9 -4.5Q328.4 -4.6 328.6 -4.7Q328.8 -4.8 328.8 -5.1V-5.1Q328.8 -5.6 328.6 -5.9Q328.4 -6.2 328 -6.4Q327.7 -6.6 327.2 -6.6Q326.6 -6.6 326.2 -6.4Q325.9 -6.2 325.6 -6Q325.4 -5.7 325.3 -5.4L324.1 -5.7Q324.3 -6.4 324.8 -6.8Q325.3 -7.3 325.9 -7.5Q326.5 -7.7 327.1 -7.7Q327.6 -7.7 328.1 -7.5Q328.6 -7.4 329 -7.2Q329.4 -6.9 329.7 -6.4Q330 -5.8 330 -5V0H328.8V-1H328.7Q328.6 -0.8 328.3 -0.5Q328 -0.2 327.6 -0Q327.1 0.2 326.5 0.2ZM326.7 -0.9Q327.4 -0.9 327.8 -1.2Q328.3 -1.4 328.5 -1.9Q328.8 -2.3 328.8 -2.8V-3.8Q328.7 -3.7 328.5 -3.6Q328.2 -3.6 327.9 -3.5Q327.6 -3.5 327.3 -3.4Q327 -3.4 326.8 -3.3Q326.3 -3.3 326 -3.2Q325.6 -3 325.3 -2.8Q325.1 -2.5 325.1 -2.1Q325.1 -1.7 325.3 -1.4Q325.5 -1.2 325.9 -1Q326.2 -0.9 326.7 -0.9ZM335.6 0.2Q334.9 0.2 334.5 -0.1Q334 -0.3 333.8 -0.6Q333.5 -0.9 333.3 -1.2H333.2V0H332V-10.2H333.3V-6.4H333.3Q333.5 -6.6 333.7 -6.9Q334 -7.2 334.4 -7.4Q334.9 -7.7 335.6 -7.7Q336.5 -7.7 337.2 -7.2Q338 -6.7 338.4 -5.8Q338.8 -4.9 338.8 -3.8Q338.8 -2.6 338.4 -1.7Q338 -0.8 337.2 -0.3Q336.5 0.2 335.6 0.2ZM335.4 -0.9Q336.1 -0.9 336.6 -1.3Q337 -1.7 337.3 -2.3Q337.5 -3 337.5 -3.8Q337.5 -4.6 337.3 -5.2Q337 -5.8 336.6 -6.2Q336.1 -6.6 335.4 -6.6Q334.7 -6.6 334.2 -6.2Q333.7 -5.9 333.5 -5.2Q333.2 -4.6 333.2 -3.8Q333.2 -2.9 333.5 -2.3Q333.7 -1.6 334.2 -1.3Q334.7 -0.9 335.4 -0.9ZM343 0.2Q342.3 0.2 341.7 -0.1Q341 -0.3 340.6 -0.8Q340.2 -1.2 340.1 -1.9L341.3 -2.1Q341.4 -1.5 341.9 -1.2Q342.3 -0.9 343 -0.9Q343.8 -0.9 344.3 -1.2Q344.8 -1.6 344.8 -2Q344.8 -2.4 344.5 -2.7Q344.2 -3 343.6 -3.1L342.4 -3.4Q341.4 -3.6 340.9 -4.1Q340.3 -4.7 340.3 -5.5Q340.3 -6.1 340.7 -6.6Q341.1 -7.1 341.7 -7.4Q342.3 -7.7 343.1 -7.7Q343.9 -7.7 344.5 -7.4Q345 -7.2 345.4 -6.7Q345.7 -6.3 345.9 -5.7L344.7 -5.5Q344.6 -5.9 344.2 -6.3Q343.9 -6.6 343.1 -6.6Q342.5 -6.6 342 -6.3Q341.6 -6 341.6 -5.5Q341.6 -5.1 341.9 -4.8Q342.2 -4.6 342.8 -4.4L344 -4.2Q345 -3.9 345.5 -3.4Q346 -2.9 346 -2.1Q346 -1.4 345.6 -0.9Q345.3 -0.4 344.6 -0.1Q343.9 0.2 343 0.2ZM348.6 0.1Q348.2 0.1 347.9 -0.2Q347.7 -0.4 347.7 -0.8Q347.7 -1.2 347.9 -1.5Q348.2 -1.7 348.6 -1.7Q349 -1.7 349.2 -1.5Q349.5 -1.2 349.5 -0.8Q349.5 -0.4 349.2 -0.2Q349 0.1 348.6 0.1Z" fill="#4B4F4D" opacity="1" /></g><g opacity="0"><animate attributeName="opacity" values="0;1" begin="0.4s" dur="0.8s" fill="freeze"/><circle cx="30" cy="153" r="6" fill="#e34c26"/><path transform="translate(42.0 158.0)" d="M0.9 0V-8.4H1.9V-4.7H5.5V-8.4H6.5V0H5.5V-3.7H1.9V0ZM10.5 0V-7.5H8.1V-8.4H14V-7.5H11.5V0ZM15.2 0V-8.4H17.2L18.3 -0.4H18.4L19.6 -8.4H21.5V0H20.5V-8H20.4L19.3 0H17.4L16.3 -8H16.2V0ZM23.1 0V-8.4H24.1V-0.9H28.5V0Z" fill="#4B4F4D" opacity="1" /><path transform="translate(93.4 146)" d="M8 .25a.75.75 0 0 1 .673.418l1.882 3.815 4.21.612a.75.75 0 0 1 .416 1.279l-3.046 2.97.719 4.192a.751.751 0 0 1-1.088.791L8 12.347l-3.766 1.98a.75.75 0 0 1-1.088-.79l.72-4.194L.818 6.374a.75.75 0 0 1 .416-1.28l4.21-.611L7.327.668A.75.75 0 0 1 8 .25Z" fill="#4B4F4D"/><path transform="translate(114.4 158.0)" d="M3.7 0.2Q2.3 0.2 1.5 -0.7Q0.7 -1.6 0.7 -3.3V-5.1Q0.7 -6.8 1.5 -7.7Q2.3 -8.6 3.7 -8.6Q5.1 -8.6 5.8 -7.7Q6.6 -6.8 6.6 -5.1V-3.3Q6.6 -1.6 5.8 -0.7Q5.1 0.2 3.7 0.2ZM3.7 -0.7Q4.6 -0.7 5.1 -1.4Q5.6 -2.1 5.6 -3.3V-5.1Q5.6 -6.2 5.1 -6.9Q4.6 -7.7 3.7 -7.7Q2.7 -7.7 2.2 -6.9Q1.7 -6.2 1.7 -5.1V-3.3Q1.7 -2.1 2.2 -1.4Q2.7 -0.7 3.7 -0.7ZM3.7 -3.4Q3.4 -3.4 3.1 -3.7Q2.9 -3.9 2.9 -4.2Q2.9 -4.5 3.1 -4.7Q3.4 -5 3.7 -5Q4 -5 4.2 -4.7Q4.4 -4.5 4.4 -4.2Q4.4 -3.9 4.2 -3.7Q4 -3.4 3.7 -3.4Z" fill="#4B4F4D" opacity="1" /><path transform="translate(143.7 146)" d="M5 5.372v.878c0 .414.336.75.75.75h4.5a.75.75 0 0 0 .75-.75v-.878a2.25 2.25 0 1 1 1.5 0v.878a2.25 2.25 0 0 1-2.25 2.25h-1.5v2.128a2.251 2.251 0 1 1-1.5 0V8.5h-1.5A2.25 2.25 0 0 1 3.5 6.25v-.878a2.25 2.25 0 1 1 1.5 0ZM5 3.25a.75.75 0 1 0-1.5 0 .75.75 0 0 0 1.5 0Zm6.75.75a.75.75 0 1 0 0-1.5.75.75 0 0 0 0 1.5Zm-3 8.75a.75.75 0 1 0-1.5 0 .75.75 0 0 0 1.5 0Z" fill="#4B4F4D"/><path transform="translate(164.7 158.0)" d="M3.7 0.2Q2.3 0.2 1.5 -0.7Q0.7 -1.6 0.7 -3.3V-5.1Q0.7 -6.8 1.5 -7.7Q2.3 -8.6 3.7 -8.6Q5.1 -8.6 5.8 -7.7Q6.6 -6.8 6.6 -5.1V-3.3Q6.6 -1.6 5.8 -0.7Q5.1 0.2 3.7 0.2ZM3.7 -0.7Q4.6 -0.7 5.1 -1.4Q5.6 -2.1 5.6 -3.3V-5.1Q5.6 -6.2 5.1 -6.9Q4.6 -7.7 3.7 -7.7Q2.7 -7.7 2.2 -6.9Q1.7 -6.2 1.7 -5.1V-3.3Q1.7 -2.1 2.2 -1.4Q2.7 -0.7 3.7 -0.7ZM3.7 -3.4Q3.4 -3.4 3.1 -3.7Q2.9 -3.9 2.9 -4.2Q2.9 -4.5 3.1 -4.7Q3.4 -5 3.7 -5Q4 -5 4.2 -4.7Q4.4 -4.5 4.4 -4.2Q4.4 -3.9 4.2 -3.7Q4 -3.4 3.7 -3.4Z" fill="#4B4F4D" opacity="1" /></g></svg>